<?xml version="1.0" encoding="utf-8" standalone="no"?>
<!DOCTYPE svg PUBLIC "-//W3C//DTD SVG 1.1//EN"
  "http://www.w3.org/Graphics/SVG/1.1/DTD/svg11.dtd">
<svg xmlns:xlink="http://www.w3.org/1999/xlink" width="528.784922pt" height="302.8104pt" viewBox="0 0 528.784922 302.8104" xmlns="http://www.w3.org/2000/svg" version="1.1">
 <metadata>
  <rdf:RDF xmlns:dc="http://purl.org/dc/elements/1.1/" xmlns:cc="http://creativecommons.org/ns#" xmlns:rdf="http://www.w3.org/1999/02/22-rdf-syntax-ns#">
   <cc:Work>
    <dc:type rdf:resource="http://purl.org/dc/dcmitype/StillImage"/>
    <dc:format>image/svg+xml</dc:format>
    <dc:creator>
     <cc:Agent>
      <dc:title>nhm-fl10</dc:title>
     </cc:Agent>
    </dc:creator>
   </cc:Work>
  </rdf:RDF>
 </metadata>
 <defs>
  <style type="text/css">*{stroke-linejoin: round; stroke-linecap: butt}</style>
 </defs>
 <g id="figure_1">
  <g id="patch_1">
   <path d="M -0 302.8104 
L 528.784922 302.8104 
L 528.784922 0 
L -0 0 
z
" style="fill: #ffffff"/>
  </g>
  <g id="axes_1">
   <g id="patch_2">
    <path d="M 44.457875 254.550125 
L 369.216 254.550125 
L 369.216 52.946109 
L 44.457875 52.946109 
z
" style="fill: #ffffff"/>
   </g>
   <g id="patch_3">
    <path d="M 59.219608 254.550125 
L 83.320396 254.550125 
L 83.320396 229.852538 
L 59.219608 229.852538 
z
" clip-path="url(#pd2e48c8baa)" style="fill: #1f6fb2"/>
   </g>
   <g id="patch_4">
    <path d="M 89.345594 254.550125 
L 113.446382 254.550125 
L 113.446382 229.852538 
L 89.345594 229.852538 
z
" clip-path="url(#pd2e48c8baa)" style="fill: #1f6fb2"/>
   </g>
   <g id="patch_5">
    <path d="M 119.471579 254.550125 
L 143.572368 254.550125 
L 143.572368 229.852538 
L 119.471579 229.852538 
z
" clip-path="url(#pd2e48c8baa)" style="fill: #1f6fb2"/>
   </g>
   <g id="patch_6">
    <path d="M 149.597565 254.550125 
L 173.698353 254.550125 
L 173.698353 229.852538 
L 149.597565 229.852538 
z
" clip-path="url(#pd2e48c8baa)" style="fill: #1f6fb2"/>
   </g>
   <g id="patch_7">
    <path d="M 179.72355 254.550125 
L 203.824339 254.550125 
L 203.824339 229.852538 
L 179.72355 229.852538 
z
" clip-path="url(#pd2e48c8baa)" style="fill: #1f6fb2"/>
   </g>
   <g id="patch_8">
    <path d="M 209.849536 254.550125 
L 233.950325 254.550125 
L 233.950325 229.852538 
L 209.849536 229.852538 
z
" clip-path="url(#pd2e48c8baa)" style="fill: #1f6fb2"/>
   </g>
   <g id="patch_9">
    <path d="M 239.975522 254.550125 
L 264.07631 254.550125 
L 264.07631 229.852538 
L 239.975522 229.852538 
z
" clip-path="url(#pd2e48c8baa)" style="fill: #1f6fb2"/>
   </g>
   <g id="patch_10">
    <path d="M 270.101507 254.550125 
L 294.202296 254.550125 
L 294.202296 229.852538 
L 270.101507 229.852538 
z
" clip-path="url(#pd2e48c8baa)" style="fill: #1f6fb2"/>
   </g>
   <g id="patch_11">
    <path d="M 300.227493 254.550125 
L 324.328281 254.550125 
L 324.328281 229.852538 
L 300.227493 229.852538 
z
" clip-path="url(#pd2e48c8baa)" style="fill: #1f6fb2"/>
   </g>
   <g id="patch_12">
    <path d="M 330.353479 254.550125 
L 354.454267 254.550125 
L 354.454267 229.852538 
L 330.353479 229.852538 
z
" clip-path="url(#pd2e48c8baa)" style="fill: #1f6fb2"/>
   </g>
   <g id="patch_13">
    <path d="M 59.219608 229.852538 
L 83.320396 229.852538 
L 83.320396 205.686081 
L 59.219608 205.686081 
z
" clip-path="url(#pd2e48c8baa)" style="fill: #d98324"/>
   </g>
   <g id="patch_14">
    <path d="M 89.345594 229.852538 
L 113.446382 229.852538 
L 113.446382 205.686081 
L 89.345594 205.686081 
z
" clip-path="url(#pd2e48c8baa)" style="fill: #d98324"/>
   </g>
   <g id="patch_15">
    <path d="M 119.471579 229.852538 
L 143.572368 229.852538 
L 143.572368 205.686081 
L 119.471579 205.686081 
z
" clip-path="url(#pd2e48c8baa)" style="fill: #d98324"/>
   </g>
   <g id="patch_16">
    <path d="M 149.597565 229.852538 
L 173.698353 229.852538 
L 173.698353 205.686081 
L 149.597565 205.686081 
z
" clip-path="url(#pd2e48c8baa)" style="fill: #d98324"/>
   </g>
   <g id="patch_17">
    <path d="M 179.72355 229.852538 
L 203.824339 229.852538 
L 203.824339 205.686081 
L 179.72355 205.686081 
z
" clip-path="url(#pd2e48c8baa)" style="fill: #d98324"/>
   </g>
   <g id="patch_18">
    <path d="M 209.849536 229.852538 
L 233.950325 229.852538 
L 233.950325 205.686081 
L 209.849536 205.686081 
z
" clip-path="url(#pd2e48c8baa)" style="fill: #d98324"/>
   </g>
   <g id="patch_19">
    <path d="M 239.975522 229.852538 
L 264.07631 229.852538 
L 264.07631 205.686081 
L 239.975522 205.686081 
z
" clip-path="url(#pd2e48c8baa)" style="fill: #d98324"/>
   </g>
   <g id="patch_20">
    <path d="M 270.101507 229.852538 
L 294.202296 229.852538 
L 294.202296 205.686081 
L 270.101507 205.686081 
z
" clip-path="url(#pd2e48c8baa)" style="fill: #d98324"/>
   </g>
   <g id="patch_21">
    <path d="M 300.227493 229.852538 
L 324.328281 229.852538 
L 324.328281 205.686081 
L 300.227493 205.686081 
z
" clip-path="url(#pd2e48c8baa)" style="fill: #d98324"/>
   </g>
   <g id="patch_22">
    <path d="M 330.353479 229.852538 
L 354.454267 229.852538 
L 354.454267 205.686081 
L 330.353479 205.686081 
z
" clip-path="url(#pd2e48c8baa)" style="fill: #d98324"/>
   </g>
   <g id="patch_23">
    <path d="M 59.219608 205.686081 
L 83.320396 205.686081 
L 83.320396 181.519625 
L 59.219608 181.519625 
z
" clip-path="url(#pd2e48c8baa)" style="fill: #2f7d32"/>
   </g>
   <g id="patch_24">
    <path d="M 89.345594 205.686081 
L 113.446382 205.686081 
L 113.446382 181.519625 
L 89.345594 181.519625 
z
" clip-path="url(#pd2e48c8baa)" style="fill: #2f7d32"/>
   </g>
   <g id="patch_25">
    <path d="M 119.471579 205.686081 
L 143.572368 205.686081 
L 143.572368 181.519625 
L 119.471579 181.519625 
z
" clip-path="url(#pd2e48c8baa)" style="fill: #2f7d32"/>
   </g>
   <g id="patch_26">
    <path d="M 149.597565 205.686081 
L 173.698353 205.686081 
L 173.698353 181.519625 
L 149.597565 181.519625 
z
" clip-path="url(#pd2e48c8baa)" style="fill: #2f7d32"/>
   </g>
   <g id="patch_27">
    <path d="M 179.72355 205.686081 
L 203.824339 205.686081 
L 203.824339 181.519625 
L 179.72355 181.519625 
z
" clip-path="url(#pd2e48c8baa)" style="fill: #2f7d32"/>
   </g>
   <g id="patch_28">
    <path d="M 209.849536 205.686081 
L 233.950325 205.686081 
L 233.950325 181.519625 
L 209.849536 181.519625 
z
" clip-path="url(#pd2e48c8baa)" style="fill: #2f7d32"/>
   </g>
   <g id="patch_29">
    <path d="M 239.975522 205.686081 
L 264.07631 205.686081 
L 264.07631 181.519625 
L 239.975522 181.519625 
z
" clip-path="url(#pd2e48c8baa)" style="fill: #2f7d32"/>
   </g>
   <g id="patch_30">
    <path d="M 270.101507 205.686081 
L 294.202296 205.686081 
L 294.202296 181.519625 
L 270.101507 181.519625 
z
" clip-path="url(#pd2e48c8baa)" style="fill: #2f7d32"/>
   </g>
   <g id="patch_31">
    <path d="M 300.227493 205.686081 
L 324.328281 205.686081 
L 324.328281 181.519625 
L 300.227493 181.519625 
z
" clip-path="url(#pd2e48c8baa)" style="fill: #2f7d32"/>
   </g>
   <g id="patch_32">
    <path d="M 330.353479 205.686081 
L 354.454267 205.686081 
L 354.454267 181.519625 
L 330.353479 181.519625 
z
" clip-path="url(#pd2e48c8baa)" style="fill: #2f7d32"/>
   </g>
   <g id="patch_33">
    <path d="M 59.219608 181.519625 
L 83.320396 181.519625 
L 83.320396 157.884299 
L 59.219608 157.884299 
z
" clip-path="url(#pd2e48c8baa)" style="fill: #7a3fa0"/>
   </g>
   <g id="patch_34">
    <path d="M 89.345594 181.519625 
L 113.446382 181.519625 
L 113.446382 157.884299 
L 89.345594 157.884299 
z
" clip-path="url(#pd2e48c8baa)" style="fill: #7a3fa0"/>
   </g>
   <g id="patch_35">
    <path d="M 119.471579 181.519625 
L 143.572368 181.519625 
L 143.572368 157.884299 
L 119.471579 157.884299 
z
" clip-path="url(#pd2e48c8baa)" style="fill: #7a3fa0"/>
   </g>
   <g id="patch_36">
    <path d="M 149.597565 181.519625 
L 173.698353 181.519625 
L 173.698353 157.884299 
L 149.597565 157.884299 
z
" clip-path="url(#pd2e48c8baa)" style="fill: #7a3fa0"/>
   </g>
   <g id="patch_37">
    <path d="M 179.72355 181.519625 
L 203.824339 181.519625 
L 203.824339 157.884299 
L 179.72355 157.884299 
z
" clip-path="url(#pd2e48c8baa)" style="fill: #7a3fa0"/>
   </g>
   <g id="patch_38">
    <path d="M 209.849536 181.519625 
L 233.950325 181.519625 
L 233.950325 157.884299 
L 209.849536 157.884299 
z
" clip-path="url(#pd2e48c8baa)" style="fill: #7a3fa0"/>
   </g>
   <g id="patch_39">
    <path d="M 239.975522 181.519625 
L 264.07631 181.519625 
L 264.07631 157.884299 
L 239.975522 157.884299 
z
" clip-path="url(#pd2e48c8baa)" style="fill: #7a3fa0"/>
   </g>
   <g id="patch_40">
    <path d="M 270.101507 181.519625 
L 294.202296 181.519625 
L 294.202296 157.884299 
L 270.101507 157.884299 
z
" clip-path="url(#pd2e48c8baa)" style="fill: #7a3fa0"/>
   </g>
   <g id="patch_41">
    <path d="M 300.227493 181.519625 
L 324.328281 181.519625 
L 324.328281 157.884299 
L 300.227493 157.884299 
z
" clip-path="url(#pd2e48c8baa)" style="fill: #7a3fa0"/>
   </g>
   <g id="patch_42">
    <path d="M 330.353479 181.519625 
L 354.454267 181.519625 
L 354.454267 157.884299 
L 330.353479 157.884299 
z
" clip-path="url(#pd2e48c8baa)" style="fill: #7a3fa0"/>
   </g>
   <g id="patch_43">
    <path d="M 59.219608 157.884299 
L 83.320396 157.884299 
L 83.320396 133.983408 
L 59.219608 133.983408 
z
" clip-path="url(#pd2e48c8baa)" style="fill: #c0392b"/>
   </g>
   <g id="patch_44">
    <path d="M 89.345594 157.884299 
L 113.446382 157.884299 
L 113.446382 133.983408 
L 89.345594 133.983408 
z
" clip-path="url(#pd2e48c8baa)" style="fill: #c0392b"/>
   </g>
   <g id="patch_45">
    <path d="M 119.471579 157.884299 
L 143.572368 157.884299 
L 143.572368 133.983408 
L 119.471579 133.983408 
z
" clip-path="url(#pd2e48c8baa)" style="fill: #c0392b"/>
   </g>
   <g id="patch_46">
    <path d="M 149.597565 157.884299 
L 173.698353 157.884299 
L 173.698353 133.983408 
L 149.597565 133.983408 
z
" clip-path="url(#pd2e48c8baa)" style="fill: #c0392b"/>
   </g>
   <g id="patch_47">
    <path d="M 179.72355 157.884299 
L 203.824339 157.884299 
L 203.824339 133.983408 
L 179.72355 133.983408 
z
" clip-path="url(#pd2e48c8baa)" style="fill: #c0392b"/>
   </g>
   <g id="patch_48">
    <path d="M 209.849536 157.884299 
L 233.950325 157.884299 
L 233.950325 133.983408 
L 209.849536 133.983408 
z
" clip-path="url(#pd2e48c8baa)" style="fill: #c0392b"/>
   </g>
   <g id="patch_49">
    <path d="M 239.975522 157.884299 
L 264.07631 157.884299 
L 264.07631 133.983408 
L 239.975522 133.983408 
z
" clip-path="url(#pd2e48c8baa)" style="fill: #c0392b"/>
   </g>
   <g id="patch_50">
    <path d="M 270.101507 157.884299 
L 294.202296 157.884299 
L 294.202296 133.983408 
L 270.101507 133.983408 
z
" clip-path="url(#pd2e48c8baa)" style="fill: #c0392b"/>
   </g>
   <g id="patch_51">
    <path d="M 300.227493 157.884299 
L 324.328281 157.884299 
L 324.328281 133.983408 
L 300.227493 133.983408 
z
" clip-path="url(#pd2e48c8baa)" style="fill: #c0392b"/>
   </g>
   <g id="patch_52">
    <path d="M 330.353479 157.884299 
L 354.454267 157.884299 
L 354.454267 133.983408 
L 330.353479 133.983408 
z
" clip-path="url(#pd2e48c8baa)" style="fill: #c0392b"/>
   </g>
   <g id="patch_53">
    <path d="M 59.219608 133.983408 
L 83.320396 133.983408 
L 83.320396 109.285821 
L 59.219608 109.285821 
z
" clip-path="url(#pd2e48c8baa)" style="fill: #2a8f8f"/>
   </g>
   <g id="patch_54">
    <path d="M 89.345594 133.983408 
L 113.446382 133.983408 
L 113.446382 109.285821 
L 89.345594 109.285821 
z
" clip-path="url(#pd2e48c8baa)" style="fill: #2a8f8f"/>
   </g>
   <g id="patch_55">
    <path d="M 119.471579 133.983408 
L 143.572368 133.983408 
L 143.572368 109.285821 
L 119.471579 109.285821 
z
" clip-path="url(#pd2e48c8baa)" style="fill: #2a8f8f"/>
   </g>
   <g id="patch_56">
    <path d="M 149.597565 133.983408 
L 173.698353 133.983408 
L 173.698353 109.285821 
L 149.597565 109.285821 
z
" clip-path="url(#pd2e48c8baa)" style="fill: #2a8f8f"/>
   </g>
   <g id="patch_57">
    <path d="M 179.72355 133.983408 
L 203.824339 133.983408 
L 203.824339 109.285821 
L 179.72355 109.285821 
z
" clip-path="url(#pd2e48c8baa)" style="fill: #2a8f8f"/>
   </g>
   <g id="patch_58">
    <path d="M 209.849536 133.983408 
L 233.950325 133.983408 
L 233.950325 109.285821 
L 209.849536 109.285821 
z
" clip-path="url(#pd2e48c8baa)" style="fill: #2a8f8f"/>
   </g>
   <g id="patch_59">
    <path d="M 239.975522 133.983408 
L 264.07631 133.983408 
L 264.07631 109.285821 
L 239.975522 109.285821 
z
" clip-path="url(#pd2e48c8baa)" style="fill: #2a8f8f"/>
   </g>
   <g id="patch_60">
    <path d="M 270.101507 133.983408 
L 294.202296 133.983408 
L 294.202296 109.285821 
L 270.101507 109.285821 
z
" clip-path="url(#pd2e48c8baa)" style="fill: #2a8f8f"/>
   </g>
   <g id="patch_61">
    <path d="M 300.227493 133.983408 
L 324.328281 133.983408 
L 324.328281 109.285821 
L 300.227493 109.285821 
z
" clip-path="url(#pd2e48c8baa)" style="fill: #2a8f8f"/>
   </g>
   <g id="patch_62">
    <path d="M 330.353479 133.983408 
L 354.454267 133.983408 
L 354.454267 109.285821 
L 330.353479 109.285821 
z
" clip-path="url(#pd2e48c8baa)" style="fill: #2a8f8f"/>
   </g>
   <g id="patch_63">
    <path d="M 59.219608 109.285821 
L 83.320396 109.285821 
L 83.320396 84.588233 
L 59.219608 84.588233 
z
" clip-path="url(#pd2e48c8baa)" style="fill: #8a6d3b"/>
   </g>
   <g id="patch_64">
    <path d="M 89.345594 109.285821 
L 113.446382 109.285821 
L 113.446382 84.588233 
L 89.345594 84.588233 
z
" clip-path="url(#pd2e48c8baa)" style="fill: #8a6d3b"/>
   </g>
   <g id="patch_65">
    <path d="M 119.471579 109.285821 
L 143.572368 109.285821 
L 143.572368 84.588233 
L 119.471579 84.588233 
z
" clip-path="url(#pd2e48c8baa)" style="fill: #8a6d3b"/>
   </g>
   <g id="patch_66">
    <path d="M 149.597565 109.285821 
L 173.698353 109.285821 
L 173.698353 84.588233 
L 149.597565 84.588233 
z
" clip-path="url(#pd2e48c8baa)" style="fill: #8a6d3b"/>
   </g>
   <g id="patch_67">
    <path d="M 179.72355 109.285821 
L 203.824339 109.285821 
L 203.824339 84.588233 
L 179.72355 84.588233 
z
" clip-path="url(#pd2e48c8baa)" style="fill: #8a6d3b"/>
   </g>
   <g id="patch_68">
    <path d="M 209.849536 109.285821 
L 233.950325 109.285821 
L 233.950325 84.588233 
L 209.849536 84.588233 
z
" clip-path="url(#pd2e48c8baa)" style="fill: #8a6d3b"/>
   </g>
   <g id="patch_69">
    <path d="M 239.975522 109.285821 
L 264.07631 109.285821 
L 264.07631 84.588233 
L 239.975522 84.588233 
z
" clip-path="url(#pd2e48c8baa)" style="fill: #8a6d3b"/>
   </g>
   <g id="patch_70">
    <path d="M 270.101507 109.285821 
L 294.202296 109.285821 
L 294.202296 84.588233 
L 270.101507 84.588233 
z
" clip-path="url(#pd2e48c8baa)" style="fill: #8a6d3b"/>
   </g>
   <g id="patch_71">
    <path d="M 300.227493 109.285821 
L 324.328281 109.285821 
L 324.328281 84.588233 
L 300.227493 84.588233 
z
" clip-path="url(#pd2e48c8baa)" style="fill: #8a6d3b"/>
   </g>
   <g id="patch_72">
    <path d="M 330.353479 109.285821 
L 354.454267 109.285821 
L 354.454267 84.588233 
L 330.353479 84.588233 
z
" clip-path="url(#pd2e48c8baa)" style="fill: #8a6d3b"/>
   </g>
   <g id="patch_73">
    <path d="M 59.219608 84.588233 
L 83.320396 84.588233 
L 83.320396 62.546301 
L 59.219608 62.546301 
z
" clip-path="url(#pd2e48c8baa)" style="fill: #555555"/>
   </g>
   <g id="patch_74">
    <path d="M 89.345594 84.588233 
L 113.446382 84.588233 
L 113.446382 62.546301 
L 89.345594 62.546301 
z
" clip-path="url(#pd2e48c8baa)" style="fill: #555555"/>
   </g>
   <g id="patch_75">
    <path d="M 119.471579 84.588233 
L 143.572368 84.588233 
L 143.572368 62.546301 
L 119.471579 62.546301 
z
" clip-path="url(#pd2e48c8baa)" style="fill: #555555"/>
   </g>
   <g id="patch_76">
    <path d="M 149.597565 84.588233 
L 173.698353 84.588233 
L 173.698353 62.546301 
L 149.597565 62.546301 
z
" clip-path="url(#pd2e48c8baa)" style="fill: #555555"/>
   </g>
   <g id="patch_77">
    <path d="M 179.72355 84.588233 
L 203.824339 84.588233 
L 203.824339 62.546301 
L 179.72355 62.546301 
z
" clip-path="url(#pd2e48c8baa)" style="fill: #555555"/>
   </g>
   <g id="patch_78">
    <path d="M 209.849536 84.588233 
L 233.950325 84.588233 
L 233.950325 62.546301 
L 209.849536 62.546301 
z
" clip-path="url(#pd2e48c8baa)" style="fill: #555555"/>
   </g>
   <g id="patch_79">
    <path d="M 239.975522 84.588233 
L 264.07631 84.588233 
L 264.07631 62.546301 
L 239.975522 62.546301 
z
" clip-path="url(#pd2e48c8baa)" style="fill: #555555"/>
   </g>
   <g id="patch_80">
    <path d="M 270.101507 84.588233 
L 294.202296 84.588233 
L 294.202296 62.546301 
L 270.101507 62.546301 
z
" clip-path="url(#pd2e48c8baa)" style="fill: #555555"/>
   </g>
   <g id="patch_81">
    <path d="M 300.227493 84.588233 
L 324.328281 84.588233 
L 324.328281 62.546301 
L 300.227493 62.546301 
z
" clip-path="url(#pd2e48c8baa)" style="fill: #555555"/>
   </g>
   <g id="patch_82">
    <path d="M 330.353479 84.588233 
L 354.454267 84.588233 
L 354.454267 62.546301 
L 330.353479 62.546301 
z
" clip-path="url(#pd2e48c8baa)" style="fill: #555555"/>
   </g>
   <g id="matplotlib.axis_1">
    <g id="xtick_1">
     <g id="line2d_1">
      <defs>
       <path id="m998675fa87" d="M 0 0 
L 0 3.5 
" style="stroke: #000000; stroke-width: 0.8"/>
      </defs>
      <g>
       <use xlink:href="#m998675fa87" x="71.270002" y="254.550125" style="stroke: #000000; stroke-width: 0.8"/>
      </g>
     </g>
     <g id="text_1">
      <text style="font-size: 8px; font-family: 'DejaVu Sans', 'Bitstream Vera Sans', 'Computer Modern Sans Serif', 'Lucida Grande', 'Verdana', 'Geneva', 'Lucid', 'Arial', 'Helvetica', 'Avant Garde', sans-serif; text-anchor: middle" x="71.270002" y="267.62825" transform="rotate(-0 71.270002 267.62825)">R1</text>
     </g>
    </g>
    <g id="xtick_2">
     <g id="line2d_2">
      <g>
       <use xlink:href="#m998675fa87" x="101.395988" y="254.550125" style="stroke: #000000; stroke-width: 0.8"/>
      </g>
     </g>
     <g id="text_2">
      <text style="font-size: 8px; font-family: 'DejaVu Sans', 'Bitstream Vera Sans', 'Computer Modern Sans Serif', 'Lucida Grande', 'Verdana', 'Geneva', 'Lucid', 'Arial', 'Helvetica', 'Avant Garde', sans-serif; text-anchor: middle" x="101.395988" y="267.62825" transform="rotate(-0 101.395988 267.62825)">R2</text>
     </g>
    </g>
    <g id="xtick_3">
     <g id="line2d_3">
      <g>
       <use xlink:href="#m998675fa87" x="131.521973" y="254.550125" style="stroke: #000000; stroke-width: 0.8"/>
      </g>
     </g>
     <g id="text_3">
      <text style="font-size: 8px; font-family: 'DejaVu Sans', 'Bitstream Vera Sans', 'Computer Modern Sans Serif', 'Lucida Grande', 'Verdana', 'Geneva', 'Lucid', 'Arial', 'Helvetica', 'Avant Garde', sans-serif; text-anchor: middle" x="131.521973" y="267.62825" transform="rotate(-0 131.521973 267.62825)">R3</text>
     </g>
    </g>
    <g id="xtick_4">
     <g id="line2d_4">
      <g>
       <use xlink:href="#m998675fa87" x="161.647959" y="254.550125" style="stroke: #000000; stroke-width: 0.8"/>
      </g>
     </g>
     <g id="text_4">
      <text style="font-size: 8px; font-family: 'DejaVu Sans', 'Bitstream Vera Sans', 'Computer Modern Sans Serif', 'Lucida Grande', 'Verdana', 'Geneva', 'Lucid', 'Arial', 'Helvetica', 'Avant Garde', sans-serif; text-anchor: middle" x="161.647959" y="267.62825" transform="rotate(-0 161.647959 267.62825)">R4</text>
     </g>
    </g>
    <g id="xtick_5">
     <g id="line2d_5">
      <g>
       <use xlink:href="#m998675fa87" x="191.773945" y="254.550125" style="stroke: #000000; stroke-width: 0.8"/>
      </g>
     </g>
     <g id="text_5">
      <text style="font-size: 8px; font-family: 'DejaVu Sans', 'Bitstream Vera Sans', 'Computer Modern Sans Serif', 'Lucida Grande', 'Verdana', 'Geneva', 'Lucid', 'Arial', 'Helvetica', 'Avant Garde', sans-serif; text-anchor: middle" x="191.773945" y="267.62825" transform="rotate(-0 191.773945 267.62825)">R5</text>
     </g>
    </g>
    <g id="xtick_6">
     <g id="line2d_6">
      <g>
       <use xlink:href="#m998675fa87" x="221.89993" y="254.550125" style="stroke: #000000; stroke-width: 0.8"/>
      </g>
     </g>
     <g id="text_6">
      <text style="font-size: 8px; font-family: 'DejaVu Sans', 'Bitstream Vera Sans', 'Computer Modern Sans Serif', 'Lucida Grande', 'Verdana', 'Geneva', 'Lucid', 'Arial', 'Helvetica', 'Avant Garde', sans-serif; text-anchor: middle" x="221.89993" y="267.62825" transform="rotate(-0 221.89993 267.62825)">R6</text>
     </g>
    </g>
    <g id="xtick_7">
     <g id="line2d_7">
      <g>
       <use xlink:href="#m998675fa87" x="252.025916" y="254.550125" style="stroke: #000000; stroke-width: 0.8"/>
      </g>
     </g>
     <g id="text_7">
      <text style="font-size: 8px; font-family: 'DejaVu Sans', 'Bitstream Vera Sans', 'Computer Modern Sans Serif', 'Lucida Grande', 'Verdana', 'Geneva', 'Lucid', 'Arial', 'Helvetica', 'Avant Garde', sans-serif; text-anchor: middle" x="252.025916" y="267.62825" transform="rotate(-0 252.025916 267.62825)">R7</text>
     </g>
    </g>
    <g id="xtick_8">
     <g id="line2d_8">
      <g>
       <use xlink:href="#m998675fa87" x="282.151902" y="254.550125" style="stroke: #000000; stroke-width: 0.8"/>
      </g>
     </g>
     <g id="text_8">
      <text style="font-size: 8px; font-family: 'DejaVu Sans', 'Bitstream Vera Sans', 'Computer Modern Sans Serif', 'Lucida Grande', 'Verdana', 'Geneva', 'Lucid', 'Arial', 'Helvetica', 'Avant Garde', sans-serif; text-anchor: middle" x="282.151902" y="267.62825" transform="rotate(-0 282.151902 267.62825)">R8</text>
     </g>
    </g>
    <g id="xtick_9">
     <g id="line2d_9">
      <g>
       <use xlink:href="#m998675fa87" x="312.277887" y="254.550125" style="stroke: #000000; stroke-width: 0.8"/>
      </g>
     </g>
     <g id="text_9">
      <text style="font-size: 8px; font-family: 'DejaVu Sans', 'Bitstream Vera Sans', 'Computer Modern Sans Serif', 'Lucida Grande', 'Verdana', 'Geneva', 'Lucid', 'Arial', 'Helvetica', 'Avant Garde', sans-serif; text-anchor: middle" x="312.277887" y="267.62825" transform="rotate(-0 312.277887 267.62825)">R9</text>
     </g>
    </g>
    <g id="xtick_10">
     <g id="line2d_10">
      <g>
       <use xlink:href="#m998675fa87" x="342.403873" y="254.550125" style="stroke: #000000; stroke-width: 0.8"/>
      </g>
     </g>
     <g id="text_10">
      <text style="font-size: 8px; font-family: 'DejaVu Sans', 'Bitstream Vera Sans', 'Computer Modern Sans Serif', 'Lucida Grande', 'Verdana', 'Geneva', 'Lucid', 'Arial', 'Helvetica', 'Avant Garde', sans-serif; text-anchor: middle" x="342.403873" y="267.62825" transform="rotate(-0 342.403873 267.62825)">R10</text>
     </g>
    </g>
    <g id="text_11">
     <text style="font-size: 8px; font-family: 'DejaVu Sans', 'Bitstream Vera Sans', 'Computer Modern Sans Serif', 'Lucida Grande', 'Verdana', 'Geneva', 'Lucid', 'Arial', 'Helvetica', 'Avant Garde', sans-serif; text-anchor: middle" x="206.836938" y="279.628875" transform="rotate(-0 206.836938 279.628875)">Communication round</text>
    </g>
   </g>
   <g id="matplotlib.axis_2">
    <g id="ytick_1">
     <g id="line2d_11">
      <defs>
       <path id="m9b4d198bf9" d="M 0 0 
L -3.5 0 
" style="stroke: #000000; stroke-width: 0.8"/>
      </defs>
      <g>
       <use xlink:href="#m9b4d198bf9" x="44.457875" y="254.550125" style="stroke: #000000; stroke-width: 0.8"/>
      </g>
     </g>
     <g id="text_12">
      <text style="font-size: 8px; font-family: 'DejaVu Sans', 'Bitstream Vera Sans', 'Computer Modern Sans Serif', 'Lucida Grande', 'Verdana', 'Geneva', 'Lucid', 'Arial', 'Helvetica', 'Avant Garde', sans-serif; text-anchor: end" x="37.457875" y="257.589187" transform="rotate(-0 37.457875 257.589187)">0.0</text>
     </g>
    </g>
    <g id="ytick_2">
     <g id="line2d_12">
      <g>
       <use xlink:href="#m9b4d198bf9" x="44.457875" y="216.14936" style="stroke: #000000; stroke-width: 0.8"/>
      </g>
     </g>
     <g id="text_13">
      <text style="font-size: 8px; font-family: 'DejaVu Sans', 'Bitstream Vera Sans', 'Computer Modern Sans Serif', 'Lucida Grande', 'Verdana', 'Geneva', 'Lucid', 'Arial', 'Helvetica', 'Avant Garde', sans-serif; text-anchor: end" x="37.457875" y="219.188423" transform="rotate(-0 37.457875 219.188423)">0.2</text>
     </g>
    </g>
    <g id="ytick_3">
     <g id="line2d_13">
      <g>
       <use xlink:href="#m9b4d198bf9" x="44.457875" y="177.748595" style="stroke: #000000; stroke-width: 0.8"/>
      </g>
     </g>
     <g id="text_14">
      <text style="font-size: 8px; font-family: 'DejaVu Sans', 'Bitstream Vera Sans', 'Computer Modern Sans Serif', 'Lucida Grande', 'Verdana', 'Geneva', 'Lucid', 'Arial', 'Helvetica', 'Avant Garde', sans-serif; text-anchor: end" x="37.457875" y="180.787658" transform="rotate(-0 37.457875 180.787658)">0.4</text>
     </g>
    </g>
    <g id="ytick_4">
     <g id="line2d_14">
      <g>
       <use xlink:href="#m9b4d198bf9" x="44.457875" y="139.34783" style="stroke: #000000; stroke-width: 0.8"/>
      </g>
     </g>
     <g id="text_15">
      <text style="font-size: 8px; font-family: 'DejaVu Sans', 'Bitstream Vera Sans', 'Computer Modern Sans Serif', 'Lucida Grande', 'Verdana', 'Geneva', 'Lucid', 'Arial', 'Helvetica', 'Avant Garde', sans-serif; text-anchor: end" x="37.457875" y="142.386893" transform="rotate(-0 37.457875 142.386893)">0.6</text>
     </g>
    </g>
    <g id="ytick_5">
     <g id="line2d_15">
      <g>
       <use xlink:href="#m9b4d198bf9" x="44.457875" y="100.947065" style="stroke: #000000; stroke-width: 0.8"/>
      </g>
     </g>
     <g id="text_16">
      <text style="font-size: 8px; font-family: 'DejaVu Sans', 'Bitstream Vera Sans', 'Computer Modern Sans Serif', 'Lucida Grande', 'Verdana', 'Geneva', 'Lucid', 'Arial', 'Helvetica', 'Avant Garde', sans-serif; text-anchor: end" x="37.457875" y="103.986128" transform="rotate(-0 37.457875 103.986128)">0.8</text>
     </g>
    </g>
    <g id="ytick_6">
     <g id="line2d_16">
      <g>
       <use xlink:href="#m9b4d198bf9" x="44.457875" y="62.546301" style="stroke: #000000; stroke-width: 0.8"/>
      </g>
     </g>
     <g id="text_17">
      <text style="font-size: 8px; font-family: 'DejaVu Sans', 'Bitstream Vera Sans', 'Computer Modern Sans Serif', 'Lucida Grande', 'Verdana', 'Geneva', 'Lucid', 'Arial', 'Helvetica', 'Avant Garde', sans-serif; text-anchor: end" x="37.457875" y="65.585363" transform="rotate(-0 37.457875 65.585363)">1.0</text>
     </g>
    </g>
    <g id="text_18">
     <text style="font-size: 8px; font-family: 'DejaVu Sans', 'Bitstream Vera Sans', 'Computer Modern Sans Serif', 'Lucida Grande', 'Verdana', 'Geneva', 'Lucid', 'Arial', 'Helvetica', 'Avant Garde', sans-serif; text-anchor: middle" x="18.8135" y="153.748117" transform="rotate(-90 18.8135 153.748117)">Normalised weight</text>
    </g>
   </g>
   <g id="patch_83">
    <path d="M 44.457875 254.550125 
L 44.457875 52.946109 
" style="fill: none; stroke: #000000; stroke-width: 0.8; stroke-linejoin: miter; stroke-linecap: square"/>
   </g>
   <g id="patch_84">
    <path d="M 44.457875 254.550125 
L 369.216 254.550125 
" style="fill: none; stroke: #000000; stroke-width: 0.8; stroke-linejoin: miter; stroke-linecap: square"/>
   </g>
   <g id="text_19">
    <text style="font-size: 8px; font-family: 'DejaVu Sans', 'Bitstream Vera Sans', 'Computer Modern Sans Serif', 'Lucida Grande', 'Verdana', 'Geneva', 'Lucid', 'Arial', 'Helvetica', 'Avant Garde', sans-serif; text-anchor: middle" x="206.836938" y="46.946109" transform="rotate(-0 206.836938 46.946109)">Aggregation weights</text>
   </g>
   <g id="legend_1">
    <g id="patch_85">
     <path d="M 287.266 61.245328 
L 297.266 61.245328 
L 297.266 57.745328 
L 287.266 57.745328 
z
" style="fill: #1f6fb2"/>
    </g>
    <g id="text_20">
     <text style="font-size: 5px; font-family: 'DejaVu Sans', 'Bitstream Vera Sans', 'Computer Modern Sans Serif', 'Lucida Grande', 'Verdana', 'Geneva', 'Lucid', 'Arial', 'Helvetica', 'Avant Garde', sans-serif; text-anchor: start" x="301.266" y="61.245328" transform="rotate(-0 301.266 61.245328)">SITE_00</text>
    </g>
    <g id="patch_86">
     <path d="M 287.266 68.745719 
L 297.266 68.745719 
L 297.266 65.245719 
L 287.266 65.245719 
z
" style="fill: #d98324"/>
    </g>
    <g id="text_21">
     <text style="font-size: 5px; font-family: 'DejaVu Sans', 'Bitstream Vera Sans', 'Computer Modern Sans Serif', 'Lucida Grande', 'Verdana', 'Geneva', 'Lucid', 'Arial', 'Helvetica', 'Avant Garde', sans-serif; text-anchor: start" x="301.266" y="68.745719" transform="rotate(-0 301.266 68.745719)">SITE_01</text>
    </g>
    <g id="patch_87">
     <path d="M 287.266 76.246109 
L 297.266 76.246109 
L 297.266 72.746109 
L 287.266 72.746109 
z
" style="fill: #2f7d32"/>
    </g>
    <g id="text_22">
     <text style="font-size: 5px; font-family: 'DejaVu Sans', 'Bitstream Vera Sans', 'Computer Modern Sans Serif', 'Lucida Grande', 'Verdana', 'Geneva', 'Lucid', 'Arial', 'Helvetica', 'Avant Garde', sans-serif; text-anchor: start" x="301.266" y="76.246109" transform="rotate(-0 301.266 76.246109)">SITE_02</text>
    </g>
    <g id="patch_88">
     <path d="M 287.266 83.7465 
L 297.266 83.7465 
L 297.266 80.2465 
L 287.266 80.2465 
z
" style="fill: #7a3fa0"/>
    </g>
    <g id="text_23">
     <text style="font-size: 5px; font-family: 'DejaVu Sans', 'Bitstream Vera Sans', 'Computer Modern Sans Serif', 'Lucida Grande', 'Verdana', 'Geneva', 'Lucid', 'Arial', 'Helvetica', 'Avant Garde', sans-serif; text-anchor: start" x="301.266" y="83.7465" transform="rotate(-0 301.266 83.7465)">SITE_03</text>
    </g>
    <g id="patch_89">
     <path d="M 330.991 61.245328 
L 340.991 61.245328 
L 340.991 57.745328 
L 330.991 57.745328 
z
" style="fill: #c0392b"/>
    </g>
    <g id="text_24">
     <text style="font-size: 5px; font-family: 'DejaVu Sans', 'Bitstream Vera Sans', 'Computer Modern Sans Serif', 'Lucida Grande', 'Verdana', 'Geneva', 'Lucid', 'Arial', 'Helvetica', 'Avant Garde', sans-serif; text-anchor: start" x="344.991" y="61.245328" transform="rotate(-0 344.991 61.245328)">SITE_04</text>
    </g>
    <g id="patch_90">
     <path d="M 330.991 68.745719 
L 340.991 68.745719 
L 340.991 65.245719 
L 330.991 65.245719 
z
" style="fill: #2a8f8f"/>
    </g>
    <g id="text_25">
     <text style="font-size: 5px; font-family: 'DejaVu Sans', 'Bitstream Vera Sans', 'Computer Modern Sans Serif', 'Lucida Grande', 'Verdana', 'Geneva', 'Lucid', 'Arial', 'Helvetica', 'Avant Garde', sans-serif; text-anchor: start" x="344.991" y="68.745719" transform="rotate(-0 344.991 68.745719)">SITE_05</text>
    </g>
    <g id="patch_91">
     <path d="M 330.991 76.246109 
L 340.991 76.246109 
L 340.991 72.746109 
L 330.991 72.746109 
z
" style="fill: #8a6d3b"/>
    </g>
    <g id="text_26">
     <text style="font-size: 5px; font-family: 'DejaVu Sans', 'Bitstream Vera Sans', 'Computer Modern Sans Serif', 'Lucida Grande', 'Verdana', 'Geneva', 'Lucid', 'Arial', 'Helvetica', 'Avant Garde', sans-serif; text-anchor: start" x="344.991" y="76.246109" transform="rotate(-0 344.991 76.246109)">SITE_06</text>
    </g>
    <g id="patch_92">
     <path d="M 330.991 83.7465 
L 340.991 83.7465 
L 340.991 80.2465 
L 330.991 80.2465 
z
" style="fill: #555555"/>
    </g>
    <g id="text_27">
     <text style="font-size: 5px; font-family: 'DejaVu Sans', 'Bitstream Vera Sans', 'Computer Modern Sans Serif', 'Lucida Grande', 'Verdana', 'Geneva', 'Lucid', 'Arial', 'Helvetica', 'Avant Garde', sans-serif; text-anchor: start" x="344.991" y="83.7465" transform="rotate(-0 344.991 83.7465)">SITE_07</text>
    </g>
   </g>
  </g>
  <g id="text_28">
   <text style="font-size: 9px; font-family: 'DejaVu Sans', 'Bitstream Vera Sans', 'Computer Modern Sans Serif', 'Lucida Grande', 'Verdana', 'Geneva', 'Lucid', 'Arial', 'Helvetica', 'Avant Garde', sans-serif; text-anchor: middle" x="190.656" y="14.038594" transform="rotate(-0 190.656 14.038594)">FL10_FIG13 - FedAvg aggregation weights</text>
  </g>
  <g id="text_29">
   <text style="font-size: 5.5px; font-family: 'DejaVu Sans', 'Bitstream Vera Sans', 'Computer Modern Sans Serif', 'Lucida Grande', 'Verdana', 'Geneva', 'Lucid', 'Arial', 'Helvetica', 'Avant Garde', sans-serif; text-anchor: start; fill: #7a3fa0" x="7.2" y="294.289111" transform="rotate(-0 7.2 294.289111)">SYNTHETIC ENGINEERING-EVENT CLASSIFICATION — NOT AAMI-SVF OR CLINICAL VALIDATION | run FL10_MODE_B_RUN_01 (mode B) | Gaps = UNDEFINED or NOT CAPTURED (never zero).</text>
  </g>
 </g>
 <defs>
  <clipPath id="pd2e48c8baa">
   <rect x="44.457875" y="52.946109" width="324.758125" height="201.604016"/>
  </clipPath>
 </defs>
</svg>
