<svg xmlns="http://www.w3.org/2000/svg" width="1100" height="760" viewBox="0 0 1100 760">  <!-- noqa: E501 -->
<rect width="100%" height="100%" fill="white"/>
<text x="55" y="25" font-size="17" font-weight="bold">FN - engineering diagnostic only</text>
<text x="55" y="44" font-size="11">label=1 probability=0.0016318684 threshold=0.61280356 completeness=0.00046</text>  <!-- noqa: E501 -->
<text x="55" y="62" font-size="11">MIT-BIH v1.0.0 MLII; per-window attribution scaling; no causal/clinical interpretation</text>  <!-- noqa: E501 -->
<line x1="85.24" y1="65" x2="85.24" y2="180" stroke="#b33" opacity="0.35"/><text x="85.24" y="58" font-size="9">N</text><line x1="150.03" y1="65" x2="150.03" y2="180" stroke="#b33" opacity="0.35"/><text x="150.03" y="58" font-size="9">N</text><line x1="213.73" y1="65" x2="213.73" y2="180" stroke="#b33" opacity="0.35"/><text x="213.73" y="58" font-size="9">N</text><line x1="276.89" y1="65" x2="276.89" y2="180" stroke="#b33" opacity="0.35"/><text x="276.89" y="58" font-size="9">N</text><line x1="340.59" y1="65" x2="340.59" y2="180" stroke="#b33" opacity="0.35"/><text x="340.59" y="58" font-size="9">N</text><line x1="407.56" y1="65" x2="407.56" y2="180" stroke="#b33" opacity="0.35"/><text x="407.56" y="58" font-size="9">N</text><line x1="471.53" y1="65" x2="471.53" y2="180" stroke="#b33" opacity="0.35"/><text x="471.53" y="58" font-size="9">N</text><line x1="534.96" y1="65" x2="534.96" y2="180" stroke="#b33" opacity="0.35"/><text x="534.96" y="58" font-size="9">N</text><line x1="598.66" y1="65" x2="598.66" y2="180" stroke="#b33" opacity="0.35"/><text x="598.66" y="58" font-size="9">N</text><line x1="663.99" y1="65" x2="663.99" y2="180" stroke="#b33" opacity="0.35"/><text x="663.99" y="58" font-size="9">N</text><line x1="728.51" y1="65" x2="728.51" y2="180" stroke="#b33" opacity="0.35"/><text x="728.51" y="58" font-size="9">N</text><line x1="793.57" y1="65" x2="793.57" y2="180" stroke="#b33" opacity="0.35"/><text x="793.57" y="58" font-size="9">N</text><line x1="858.08" y1="65" x2="858.08" y2="180" stroke="#b33" opacity="0.35"/><text x="858.08" y="58" font-size="9">N</text><line x1="922.87" y1="65" x2="922.87" y2="180" stroke="#b33" opacity="0.35"/><text x="922.87" y="58" font-size="9">N</text><line x1="985.76" y1="65" x2="985.76" y2="180" stroke="#b33" opacity="0.35"/><text x="985.76" y="58" font-size="9">N</text><line x1="1031.22" y1="65" x2="1031.22" y2="180" stroke="#b33" opacity="0.35"/><text x="1031.22" y="58" font-size="9">V</text>
<text x="55" y="90" font-size="12">Raw MLII ECG (mV/source physical units), time 0-10 s</text><polyline fill="none" stroke="#1f4e79" points="70.00,158.06 71.09,153.27 72.18,151.75 73.27,153.77 74.36,153.02 75.45,158.31 76.54,162.60 77.62,163.61 78.71,164.87 79.80,165.62 80.89,165.37 81.98,167.89 83.07,154.53 84.16,103.84 85.25,65.00 86.34,112.16 87.43,159.07 88.52,164.11 89.61,166.89 90.69,169.41 91.78,169.66 92.87,169.91 93.96,168.90 95.05,169.66 96.14,168.90 97.23,167.64 98.32,167.64 99.41,167.14 100.50,165.37 101.59,165.37 102.68,164.62 103.76,162.85 104.85,162.35 105.94,161.34 107.03,160.33 108.12,161.09 109.21,161.59 110.30,159.82 111.39,159.07 112.48,158.31 113.57,157.05 114.66,159.57 115.75,159.57 116.84,158.31 117.92,160.58 119.01,160.33 120.10,159.57 121.19,159.82 122.28,159.82 123.37,159.07 124.46,160.08 125.55,159.82 126.64,158.82 127.73,159.32 128.82,159.57 129.91,158.56 130.99,159.07 132.08,159.57 133.17,157.81 134.26,156.80 135.35,153.77 136.44,149.74 137.53,150.75 138.62,151.25 139.71,154.02 140.80,158.31 141.89,161.09 142.98,162.85 144.07,163.61 145.15,164.11 146.24,164.87 147.33,165.37 148.42,139.14 149.51,87.95 150.60,81.14 151.69,140.41 152.78,163.36 153.87,162.85 154.96,167.14 156.05,168.40 157.14,168.90 158.22,168.40 159.31,168.90 160.40,169.16 161.49,168.15 162.58,168.15 163.67,168.15 164.76,167.14 165.85,166.63 166.94,166.63 168.03,165.37 169.12,164.36 170.21,164.36 171.29,162.85 172.38,162.60 173.47,162.85 174.56,162.60 175.65,162.35 176.74,161.84 177.83,159.57 178.92,159.82 180.01,161.09 181.10,160.83 182.19,161.09 183.28,162.09 184.37,161.09 185.45,161.09 186.54,161.59 187.63,160.58 188.72,160.33 189.81,162.09 190.90,160.58 191.99,160.83 193.08,161.34 194.17,161.34 195.26,161.84 196.35,162.35 197.44,160.58 198.52,158.82 199.61,157.55 200.70,152.26 201.79,153.77 202.88,155.29 203.97,159.32 205.06,162.60 206.15,164.62 207.24,165.62 208.33,165.88 209.42,166.89 210.51,167.89 211.59,159.57 212.68,117.20 213.77,73.83 214.86,116.20 215.95,164.62 217.04,166.38 218.13,167.14 219.22,171.43 220.31,170.16 221.40,170.92 222.49,171.17 223.58,171.17 224.67,171.17 225.75,171.17 226.84,169.66 227.93,168.90 229.02,169.91 230.11,168.40 231.20,167.89 232.29,168.15 233.38,165.88 234.47,165.12 235.56,165.62 236.65,164.36 237.74,164.62 238.82,164.87 239.91,163.61 241.00,161.59 242.09,161.84 243.18,162.09 244.27,162.35 245.36,164.36 246.45,163.61 247.54,163.36 248.63,164.87 249.72,163.10 250.81,163.86 251.89,164.62 252.98,163.36 254.07,163.10 255.16,164.87 256.25,163.86 257.34,163.61 258.43,164.62 259.52,164.62 260.61,163.61 261.70,162.60 262.79,160.83 263.88,156.29 264.97,155.54 266.05,156.29 267.14,159.07 268.23,163.61 269.32,166.38 270.41,166.89 271.50,167.64 272.59,168.15 273.68,169.41 274.77,160.08 275.86,110.90 276.95,72.57 278.04,123.51 279.12,167.64 280.21,167.39 281.30,170.67 282.39,172.18 283.48,172.18 284.57,173.44 285.66,172.43 286.75,172.18 287.84,172.69 288.93,171.93 290.02,171.43 291.11,170.42 292.20,169.66 293.28,169.41 294.37,168.65 295.46,168.40 296.55,166.38 297.64,166.38 298.73,166.63 299.82,166.38 300.91,167.14 302.00,165.62 303.09,163.36 304.18,163.61 305.27,163.86 306.35,164.62 307.44,166.38 308.53,165.88 309.62,164.62 310.71,165.37 311.80,165.37 312.89,164.62 313.98,165.62 315.07,164.62 316.16,163.61 317.25,164.62 318.34,163.86 319.42,163.10 320.51,163.86 321.60,163.86 322.69,163.61 323.78,163.61 324.87,161.59 325.96,159.32 327.05,156.55 328.14,155.29 329.23,155.79 330.32,158.06 331.41,162.60 332.50,165.12 333.58,167.64 334.67,167.64 335.76,167.39 336.85,169.41 337.94,167.39 339.03,138.89 340.12,87.19 341.21,84.92 342.30,146.21 343.39,169.16 344.48,165.88 345.57,169.91 346.65,171.93 347.74,170.67 348.83,170.67 349.92,172.18 351.01,170.16 352.10,170.42 353.19,171.17 354.28,168.90 355.37,168.65 356.46,169.16 357.55,167.89 358.64,167.64 359.72,167.39 360.81,165.37 361.90,165.62 362.99,165.88 364.08,164.36 365.17,163.86 366.26,164.87 367.35,164.62 368.44,161.34 369.53,162.35 370.62,161.59 371.71,161.59 372.80,164.11 373.88,163.61 374.97,162.09 376.06,163.36 377.15,163.61 378.24,161.09 379.33,162.35 380.42,162.60 381.51,161.09 382.60,163.36 383.69,161.84 384.78,160.33 385.87,162.09 386.95,162.60 388.04,161.84 389.13,162.09 390.22,160.83 391.31,159.07 392.40,157.81 393.49,154.53 394.58,153.27 395.67,154.53 397.03,157.30 398.12,161.59 399.21,165.12 400.30,165.37 401.39,165.88 402.48,166.13 403.56,166.63 404.65,167.14 405.74,144.44 406.83,93.50 407.92,77.61 409.01,133.09 410.10,164.11 411.19,164.62 412.28,167.89 413.37,170.16 414.46,170.16 415.55,171.17 416.64,169.91 417.72,170.16 418.81,170.42 419.90,169.66 420.99,169.16 422.08,169.91 423.17,168.65 424.26,167.89 425.35,168.65 426.44,167.14 427.53,165.88 428.62,165.62 429.71,164.62 430.79,164.62 431.88,165.37 432.97,164.11 434.06,162.09 435.15,161.59 436.24,160.83 437.33,161.34 438.42,162.60 439.51,162.60 440.60,163.10 441.69,163.61 442.78,162.60 443.86,162.60 444.95,162.85 446.04,162.60 447.13,161.59 448.22,162.35 449.31,161.59 450.40,162.09 451.49,162.85 452.58,162.35 453.67,162.60 454.76,162.60 455.85,160.33 456.94,158.82 458.02,155.54 459.11,154.02 460.20,154.78 461.29,158.31 462.38,161.84 463.47,163.86 464.56,164.62 465.65,165.12 466.74,166.38 467.83,168.65 468.92,166.38 470.01,139.90 471.09,86.69 472.18,85.43 473.27,147.72 474.36,167.64 475.45,164.87 476.54,168.90 477.63,171.17 478.72,170.16 479.81,170.16 480.90,171.93 481.99,169.91 483.08,169.91 484.17,171.43 485.25,170.16 486.34,168.40 487.43,169.91 488.52,168.15 489.61,166.63 490.70,166.89 491.79,165.12 492.88,164.11 493.97,165.12 495.06,163.36 496.15,163.86 497.24,164.87 498.32,162.35 499.41,159.57 500.50,160.83 501.59,160.58 502.68,160.58 503.77,163.10 504.86,162.09 505.95,161.59 507.04,163.10 508.13,161.84 509.22,161.34 510.31,162.35 511.39,161.59 512.48,160.58 513.57,161.09 514.66,161.59 515.75,160.58 516.84,161.84 517.93,160.83 519.02,160.33 520.11,160.33 521.20,157.81 522.29,153.02 523.38,152.51 524.47,152.51 525.55,153.77 526.64,160.33 527.73,162.35 528.82,162.85 529.91,165.37 531.00,164.87 532.09,165.12 533.18,156.29 534.27,103.59 535.36,68.53 536.45,135.11 537.54,168.90 538.62,162.60 539.71,168.90 540.80,168.90 541.89,167.89 542.98,170.42 544.07,168.90 545.16,168.40 546.25,169.41 547.34,168.40 548.43,166.89 549.52,168.65 550.61,167.89 551.69,165.62 552.78,166.38 553.87,164.11 554.96,163.61 556.05,163.86 557.14,163.36 558.23,163.61 559.32,164.87 560.41,162.60 561.50,161.34 562.59,161.59 563.68,161.84 564.77,160.83 565.85,163.10 566.94,163.10 568.03,162.85 569.12,164.62 570.21,161.84 571.30,162.60 572.39,163.61 573.48,161.84 574.57,161.34 575.66,163.61 576.75,161.09 577.84,161.09 578.92,162.60 580.01,162.09 581.10,161.34 582.19,162.35 583.28,159.32 584.37,157.30 585.46,156.55 586.55,153.27 587.64,153.77 588.73,157.81 589.82,162.60 590.91,163.61 591.99,165.88 593.08,166.38 594.17,165.12 595.26,167.64 596.35,163.10 597.44,126.79 598.53,72.31 599.62,102.07 600.71,159.82 601.80,166.38 602.89,167.39 603.98,169.66 605.07,170.67 606.15,171.17 607.24,170.16 608.33,170.42 609.42,170.42 610.51,169.41 611.60,169.91 612.69,169.41 613.78,169.16 614.87,169.16 615.96,167.64 617.05,166.38 618.14,166.38 619.22,166.13 620.31,164.36 621.40,165.37 622.49,164.62 623.58,164.87 624.67,164.62 625.76,162.09 626.85,160.83 627.94,161.59 629.03,161.09 630.12,162.85 631.21,163.36 632.30,162.60 633.38,162.09 634.47,163.86 635.56,162.60 636.65,163.10 637.74,163.10 638.83,162.09 639.92,161.84 641.01,162.09 642.10,161.84 643.19,161.84 644.28,163.10 645.37,162.09 646.45,161.59 647.54,162.09 648.63,160.08 649.72,156.80 650.81,155.54 651.90,152.76 652.99,152.76 654.08,156.29 655.17,160.33 656.26,162.09 657.35,165.12 658.44,165.12 659.52,165.12 660.61,167.39 661.70,163.10 662.79,131.07 663.88,78.62 664.97,96.02 666.06,155.54 667.15,166.38 668.24,165.62 669.33,169.41 670.42,170.67 671.51,169.66 672.60,169.41 673.68,170.16 674.77,168.90 675.86,168.65 676.95,169.16 678.04,166.89 679.13,167.64 680.22,168.15 681.31,165.37 682.40,164.87 683.49,164.87 684.58,162.60 685.67,162.60 686.75,163.86 687.84,162.60 688.93,163.10 690.02,162.60 691.11,159.07 692.20,159.57 693.29,161.84 694.38,160.83 695.47,162.35 696.56,163.86 697.65,162.09 698.74,162.35 699.82,162.85 700.91,161.84 702.00,162.09 703.09,163.10 704.18,161.84 705.27,162.60 706.36,163.36 707.45,161.09 708.54,162.35 709.63,163.36 710.72,161.59 711.81,160.33 712.90,159.82 713.98,155.54 715.07,152.01 716.16,155.03 717.25,154.78 718.34,157.81 719.43,163.36 720.52,164.87 721.61,165.12 722.70,167.39 724.06,167.39 725.15,168.65 726.24,165.12 727.33,130.32 728.42,80.64 729.51,99.30 730.59,154.53 731.68,166.13 732.77,167.14 733.86,170.92 734.95,169.91 736.04,171.43 737.13,171.93 738.22,170.42 739.31,171.93 740.40,170.16 741.49,169.66 742.58,171.17 743.66,169.91 744.75,169.16 745.84,169.66 746.93,168.40 748.02,166.63 749.11,167.64 750.20,165.88 751.29,165.12 752.38,165.37 753.47,165.37 754.56,163.86 755.65,163.36 756.74,162.09 757.82,161.34 758.91,162.85 760.00,163.61 761.09,163.86 762.18,164.62 763.27,164.87 764.36,163.36 765.45,163.86 766.54,163.36 767.63,163.61 768.72,163.61 769.81,163.86 770.89,163.10 771.98,163.86 773.07,163.61 774.16,163.86 775.25,164.36 776.34,163.10 777.43,161.84 778.52,160.33 779.61,157.81 780.70,154.53 781.79,155.79 782.88,156.29 783.96,162.09 785.05,165.37 786.14,166.89 787.23,167.64 788.32,168.15 789.41,167.14 790.50,168.90 791.59,159.07 792.68,116.20 793.77,76.35 794.86,113.17 795.95,160.08 797.04,167.39 798.12,166.89 799.21,170.92 800.30,171.68 801.39,172.18 802.48,171.17 803.57,170.67 804.66,172.18 805.75,170.16 806.84,169.41 807.93,171.68 809.02,169.16 810.11,168.90 811.19,169.91 812.28,168.65 813.37,168.40 814.46,168.65 815.55,165.62 816.64,164.87 817.73,167.64 818.82,165.12 819.91,164.11 821.00,164.62 822.09,161.34 823.18,160.58 824.27,162.60 825.35,163.36 826.44,162.85 827.53,165.12 828.62,163.61 829.71,163.36 830.80,164.62 831.89,163.36 832.98,162.35 834.07,164.36 835.16,163.10 836.25,163.61 837.34,164.11 838.42,163.10 839.51,162.85 840.60,163.86 841.69,162.60 842.78,161.34 843.87,160.58 844.96,157.05 846.05,154.28 847.14,155.54 848.23,156.80 849.32,159.82 850.41,165.37 851.49,165.62 852.58,166.63 853.67,167.89 854.76,167.64 855.85,165.37 856.94,133.60 858.03,77.61 859.12,97.53 860.21,158.56 861.30,167.89 862.39,165.12 863.48,171.17 864.57,170.92 865.65,170.92 866.74,172.94 867.83,171.68 868.92,171.17 870.01,171.93 871.10,171.43 872.19,169.91 873.28,171.17 874.37,169.66 875.46,168.90 876.55,168.90 877.64,167.89 878.72,166.89 879.81,167.14 880.90,165.62 881.99,165.88 883.08,167.14 884.17,165.37 885.26,163.61 886.35,163.36 887.44,162.35 888.53,163.36 889.62,164.87 890.71,164.36 891.79,164.87 892.88,165.12 893.97,165.12 895.06,165.37 896.15,165.88 897.24,164.11 898.33,163.86 899.42,163.86 900.51,162.85 901.60,163.61 902.69,163.36 903.78,163.36 904.87,163.86 905.95,164.62 907.04,161.84 908.13,161.09 909.22,159.07 910.31,155.03 911.40,155.54 912.49,157.05 913.58,158.82 914.67,164.11 915.76,166.63 916.85,167.14 917.94,168.15 919.02,168.65 920.11,169.16 921.20,152.26 922.29,97.53 923.38,76.10 924.47,140.91 925.56,169.66 926.65,165.62 927.74,170.16 928.83,172.43 929.92,171.93 931.01,172.69 932.10,172.69 933.18,171.43 934.27,171.43 935.36,170.92 936.45,170.16 937.54,169.91 938.63,169.91 939.72,168.65 940.81,167.89 941.90,167.39 942.99,166.63 944.08,165.88 945.17,165.88 946.25,165.37 947.34,164.36 948.43,163.36 949.52,161.84 950.61,160.58 951.70,161.59 952.79,162.35 953.88,162.35 954.97,164.36 956.06,164.11 957.15,163.10 958.24,162.85 959.32,163.36 960.41,162.35 961.50,163.10 962.59,162.85 963.68,162.35 964.77,162.35 965.86,163.61 966.95,162.60 968.04,163.10 969.13,162.35 970.22,160.33 971.31,158.56 972.40,154.78 973.48,152.01 974.57,154.78 975.66,156.29 976.75,159.32 977.84,163.36 978.93,165.37 980.02,165.62 981.11,166.38 982.20,167.14 983.29,166.63 984.38,144.69 985.47,87.45 986.55,83.16 987.64,145.70 988.73,165.88 989.82,164.36 990.91,169.16 992.00,169.66 993.09,169.66 994.18,170.67 995.27,170.92 996.36,170.92 997.45,170.92 998.54,168.65 999.62,168.65 1000.71,168.90 1001.80,167.14 1002.89,166.38 1003.98,166.38 1005.07,164.62 1006.16,164.62 1007.25,164.11 1008.34,162.85 1009.43,163.36 1010.52,163.86 1011.61,162.35 1012.70,161.09 1013.78,161.09 1014.87,158.31 1015.96,159.57 1017.05,161.59 1018.14,160.33 1019.23,161.34 1020.32,162.09 1021.41,159.82 1022.50,159.82 1023.59,159.07 1024.68,152.76 1025.77,149.99 1026.85,148.48 1027.94,140.15 1029.03,130.82 1030.12,112.16 1031.21,101.82 1032.30,105.60 1033.39,112.41 1034.48,108.38 1035.57,117.20 1036.66,142.17 1037.75,153.02 1038.84,161.34 1039.92,166.89 1041.01,169.91 1042.10,172.94 1043.19,177.23 1044.28,176.97 1045.37,176.72 1046.46,178.49 1047.55,177.73 1048.64,177.98 1050.00,180.00"/>  <!-- noqa: E501 -->
<text x="55" y="270" font-size="12">Canonical normalized 250-Hz MODEL_V1 input</text><polyline fill="none" stroke="#386641" points="70.00,324.99 70.78,325.50 71.96,325.19 73.14,323.84 74.31,323.80 75.10,321.80 76.27,317.63 77.45,318.69 78.63,320.25 79.80,322.33 80.59,326.89 81.76,330.34 82.94,330.55 84.12,331.73 84.90,331.58 86.08,331.28 87.25,330.42 88.43,303.04 89.61,252.15 90.39,249.27 91.57,313.43 92.75,347.68 93.92,343.70 94.71,346.12 95.88,347.13 97.06,345.85 98.24,344.56 99.41,342.44 100.20,342.03 101.37,340.04 102.55,337.70 103.73,337.34 104.51,335.89 105.69,333.46 106.86,332.96 108.04,330.69 109.22,329.10 110.00,328.74 111.18,327.60 112.35,326.69 113.53,327.45 114.31,327.14 115.49,325.73 116.67,325.01 117.84,323.89 119.02,324.58 119.80,326.18 120.98,325.79 122.16,325.64 123.33,326.89 124.12,326.56 125.29,325.89 126.47,326.12 127.65,325.92 128.82,325.30 129.61,326.06 130.78,325.82 131.96,325.02 133.14,326.08 134.31,325.95 135.10,325.27 136.27,325.79 137.45,325.41 138.63,323.74 139.41,323.02 140.59,320.35 141.76,317.97 142.94,320.62 144.12,322.20 144.90,324.94 146.08,329.65 147.25,331.19 148.43,332.01 149.22,332.47 150.39,332.21 151.57,332.99 152.75,324.10 153.92,283.38 154.71,256.07 155.88,280.43 157.06,340.59 158.24,345.27 159.02,343.18 160.20,346.77 161.37,345.73 162.55,344.64 163.73,342.79 164.51,342.47 165.69,341.48 166.86,338.83 168.04,337.77 168.82,337.13 170.00,334.83 171.18,333.76 172.35,333.00 173.53,330.44 174.31,329.80 175.49,329.53 176.67,327.35 177.84,327.22 178.63,327.30 179.80,326.04 180.98,325.57 182.16,324.80 183.33,322.98 184.12,323.55 185.29,324.75 186.47,324.31 187.65,324.89 188.43,325.26 189.61,324.68 190.78,324.57 191.96,324.62 193.14,324.08 193.92,324.13 195.10,325.00 196.27,323.83 197.45,324.42 198.63,324.89 199.41,324.71 200.59,324.77 201.76,324.46 202.94,323.15 203.73,321.89 204.90,319.41 206.08,317.07 207.25,319.95 208.43,322.93 209.22,325.93 210.39,329.18 211.57,330.40 212.75,330.23 213.53,330.05 214.71,330.88 215.88,329.30 217.06,306.27 218.24,258.63 219.02,254.40 220.20,318.23 221.37,348.24 222.55,340.04 223.33,342.91 224.51,345.08 225.69,342.38 226.86,341.74 228.04,340.72 228.82,339.89 230.00,338.30 231.18,336.87 232.35,334.68 233.14,333.99 234.31,333.53 235.49,331.39 236.67,330.62 237.84,329.25 238.63,327.64 239.80,326.85 240.98,326.84 242.16,325.62 242.94,325.82 244.12,326.05 245.29,323.63 246.47,322.49 247.65,323.40 248.43,323.35 249.61,324.61 250.78,325.66 251.96,324.62 252.75,325.07 253.92,325.98 255.10,324.50 256.27,325.37 257.45,325.12 258.24,324.35 259.41,324.85 260.59,325.90 261.76,324.72 262.94,325.19 263.73,325.69 264.90,325.24 266.08,324.39 267.25,322.97 268.04,321.26 269.22,317.47 270.39,318.86 271.57,321.23 272.75,326.11 273.53,329.28 274.71,330.00 275.88,330.10 277.06,330.82 277.84,330.71 279.02,329.29 280.20,304.94 281.37,254.79 282.55,272.76 283.33,322.35 284.51,348.96 285.69,342.01 286.86,346.81 287.65,345.61 288.82,343.86 290.00,343.53 291.18,340.60 292.35,340.38 293.14,339.45 294.31,337.52 295.49,335.94 296.67,334.54 297.45,333.57 298.63,332.02 299.80,330.89 300.98,329.36 302.16,328.15 302.94,328.44 304.12,328.05 305.29,328.00 306.47,327.77 307.25,325.96 308.43,324.17 309.61,324.89 310.78,325.47 311.96,326.45 312.75,326.81 313.92,326.01 315.10,325.64 316.27,326.32 317.45,325.59 318.24,325.49 319.41,325.75 320.59,324.45 321.76,324.70 322.55,325.43 323.73,324.82 324.90,324.39 326.08,325.15 327.25,324.93 328.04,324.99 329.22,324.15 330.39,321.92 331.57,320.36 332.35,318.64 333.53,318.87 334.71,321.26 335.88,325.15 337.06,329.34 337.84,330.68 339.02,331.60 340.20,330.97 341.37,331.34 342.16,332.58 343.33,321.62 344.51,279.88 345.69,251.22 346.86,303.54 347.65,341.67 348.82,345.94 350.00,342.91 351.18,346.89 351.96,345.72 353.14,343.17 354.31,342.44 355.49,341.74 356.67,339.00 357.45,338.69 358.63,338.16 359.80,335.05 360.98,334.80 361.76,334.55 362.94,332.27 364.12,331.66 365.29,330.48 366.47,328.41 367.25,328.57 368.43,328.46 369.61,326.34 370.78,327.08 371.57,327.62 372.75,325.53 373.92,323.77 375.10,325.42 376.27,324.03 377.06,325.15 378.24,327.24 379.41,325.27 380.59,325.15 381.76,326.22 382.55,325.22 383.73,324.14 384.90,325.75 386.08,324.62 386.86,324.38 388.04,325.57 389.22,324.14 390.39,324.58 391.57,326.10 392.35,325.59 393.53,325.04 394.71,325.44 395.88,323.15 396.67,322.21 397.84,321.61 399.02,318.62 400.20,320.06 401.37,322.79 402.16,325.00 403.33,329.52 404.51,332.06 405.69,331.59 406.47,331.53 407.65,331.37 408.82,331.80 410.00,325.59 411.18,290.03 411.96,259.57 413.14,267.01 414.31,330.27 415.49,345.62 416.27,342.50 417.45,346.30 418.63,345.93 419.80,344.79 420.98,343.95 421.76,342.16 422.94,341.08 424.12,339.97 425.29,337.98 426.08,337.41 427.25,336.84 428.43,334.33 429.61,333.75 430.78,332.83 431.57,331.15 432.75,329.79 433.92,328.72 435.10,327.32 435.88,327.48 437.06,327.67 438.24,325.74 439.41,324.54 440.59,323.31 441.37,322.89 442.55,324.16 443.73,325.42 444.90,324.78 446.08,325.65 446.86,325.72 448.04,324.68 449.22,324.80 450.39,324.68 451.18,324.05 452.35,324.14 453.53,324.54 454.71,323.52 455.88,324.98 456.67,325.30 457.84,324.38 459.02,324.96 460.20,324.17 460.98,322.61 462.16,320.97 463.33,318.26 464.51,318.47 465.69,321.31 466.47,324.24 467.65,327.65 468.82,329.00 470.00,329.75 470.78,329.49 471.96,330.09 473.14,331.80 474.31,321.56 475.49,281.46 476.27,253.71 477.45,279.33 478.63,341.70 479.80,343.98 480.59,340.59 481.76,345.38 482.94,344.54 484.12,341.90 485.29,342.28 486.08,341.93 487.25,338.54 488.43,338.27 489.61,337.77 490.39,335.75 491.57,333.95 492.75,333.98 493.92,330.99 495.10,330.21 495.88,329.87 497.06,327.65 498.24,326.88 499.41,327.09 500.59,325.44 501.37,326.09 502.55,326.34 503.73,323.27 504.90,322.27 505.69,323.40 506.86,323.24 508.04,324.28 509.22,325.68 510.39,324.65 511.18,324.71 512.35,325.65 513.53,324.38 514.71,324.45 515.49,325.03 516.67,324.30 517.84,323.97 519.02,324.67 520.20,324.38 520.98,324.07 522.16,325.35 523.33,324.16 524.51,324.49 525.29,324.21 526.47,320.88 527.65,317.81 528.82,319.78 530.00,319.90 530.78,322.49 531.96,329.26 533.14,329.69 534.31,330.79 535.10,332.16 536.27,330.79 537.45,329.16 538.63,304.54 539.80,251.42 540.59,258.23 541.76,335.33 542.94,348.34 544.12,341.57 544.90,347.03 546.08,344.45 547.25,343.37 548.43,343.32 549.61,340.52 550.39,340.32 551.57,339.62 552.75,337.05 553.92,336.04 554.71,336.13 555.88,333.96 557.06,332.39 558.24,331.27 559.41,329.13 560.20,329.15 561.37,328.96 562.55,328.26 563.73,328.94 564.90,328.03 565.69,326.10 566.86,325.35 568.04,325.81 569.22,325.31 570.00,325.57 571.18,327.37 572.35,326.75 573.53,327.11 574.71,326.82 575.49,325.00 576.67,325.83 577.84,326.34 579.02,324.01 579.80,324.55 580.98,325.90 582.16,323.82 583.33,324.82 584.51,325.56 585.29,324.89 586.47,325.01 587.65,324.54 588.82,321.60 589.61,321.20 590.78,319.75 591.96,318.28 593.14,321.16 594.31,326.31 595.10,328.67 596.27,329.95 597.45,331.08 598.63,330.62 599.41,330.25 600.59,330.84 601.76,316.05 602.94,267.70 604.12,254.75 604.90,299.92 606.08,348.56 607.25,341.93 608.43,344.67 609.22,345.61 610.39,344.05 611.57,343.01 612.75,341.19 613.92,340.16 614.71,339.10 615.88,337.55 617.06,336.80 618.24,335.28 619.02,334.47 620.20,333.42 621.37,331.29 622.55,329.76 623.73,329.20 624.51,328.56 625.69,327.44 626.86,327.18 628.04,326.61 629.22,326.37 630.00,325.45 631.18,323.05 632.35,323.08 633.53,323.80 634.31,323.90 635.49,325.10 636.67,325.09 637.84,324.32 639.02,325.01 639.80,325.34 640.98,324.18 642.16,325.07 643.33,325.02 644.12,323.66 645.29,324.08 646.47,324.78 647.65,324.05 648.82,325.19 649.61,325.45 650.78,323.92 651.96,324.66 653.14,324.41 653.92,322.15 655.10,320.12 656.27,318.67 657.45,317.47 658.63,320.71 659.41,323.82 660.59,327.35 661.76,329.89 662.94,330.93 663.73,330.13 664.90,330.86 666.08,331.37 667.25,314.66 668.43,269.64 669.22,251.60 670.39,301.39 671.57,349.02 672.75,342.22 673.53,342.92 674.71,346.54 675.88,344.92 677.06,342.63 678.24,341.86 679.02,341.30 680.20,338.75 681.37,338.00 682.55,336.45 683.73,334.36 684.51,334.51 685.69,333.36 686.86,330.55 688.04,330.41 688.82,329.62 690.00,327.46 691.18,328.25 692.35,327.97 693.53,327.12 694.31,327.36 695.49,325.47 696.67,323.94 697.84,325.40 698.63,326.15 699.80,325.88 700.98,327.31 702.16,327.28 703.33,326.08 704.12,326.28 705.29,326.51 706.47,325.45 707.65,326.71 708.43,326.75 709.61,325.67 710.78,326.56 711.96,326.03 713.14,324.83 713.92,326.13 715.10,326.17 716.27,324.00 717.45,323.92 718.24,322.75 719.41,318.39 720.59,318.53 721.76,321.62 722.94,322.43 723.73,326.52 724.90,331.00 726.08,330.54 727.25,331.67 728.04,332.21 729.22,331.29 730.39,332.08 731.57,320.49 732.75,277.43 733.53,254.36 734.71,288.58 735.88,342.35 737.06,343.31 737.84,342.69 739.02,346.07 740.20,343.47 741.37,343.65 742.55,341.79 743.33,340.46 744.51,340.02 745.69,337.41 746.86,335.97 748.04,335.77 748.82,334.46 750.00,332.98 751.18,332.18 752.35,330.24 753.14,329.07 754.31,329.11 755.49,327.32 756.67,326.79 757.84,326.73 758.63,325.91 759.80,324.68 760.98,323.57 762.16,322.71 762.94,322.90 764.12,324.29 765.29,324.70 766.47,325.25 767.65,325.31 768.43,325.08 769.61,324.43 770.78,324.46 771.96,324.30 772.75,324.59 773.92,324.29 775.10,324.22 776.27,324.24 777.45,324.46 778.24,324.59 779.41,324.92 780.59,325.27 781.76,323.46 782.55,322.68 783.73,321.60 784.90,318.67 786.08,317.65 787.25,320.28 788.04,321.57 789.22,327.07 790.39,330.01 791.57,330.30 792.35,330.44 793.53,330.63 794.71,329.95 795.88,329.01 797.06,306.61 797.84,274.93 799.02,254.22 800.20,309.75 801.37,345.71 802.16,343.81 803.33,342.76 804.51,345.18 805.69,344.26 806.86,343.30 807.65,341.45 808.82,340.48 810.00,340.03 811.18,336.68 812.35,336.65 813.14,336.95 814.31,333.82 815.49,333.16 816.67,333.04 817.45,331.58 818.63,330.95 819.80,329.42 820.98,326.77 822.16,327.64 822.94,328.45 824.12,326.32 825.29,325.79 826.47,324.59 827.25,322.33 828.43,322.80 829.61,325.20 830.78,324.91 831.96,325.10 832.75,326.44 833.92,325.06 835.10,325.21 836.27,326.21 837.06,325.36 838.24,324.22 839.41,326.05 840.59,325.03 841.76,325.54 842.55,325.83 843.73,325.14 844.90,325.52 846.08,325.93 846.86,324.85 848.04,323.76 849.22,322.32 850.39,319.09 851.57,318.87 852.35,320.57 853.53,322.62 854.71,326.89 855.88,331.33 856.67,330.91 857.84,331.01 859.02,331.64 860.20,331.12 861.37,318.12 862.16,288.64 863.33,249.32 864.51,299.84 865.69,349.17 866.86,341.91 867.65,342.01 868.82,346.86 870.00,344.01 871.18,343.79 871.96,343.75 873.14,341.38 874.31,339.91 875.49,339.02 876.67,337.36 877.45,336.12 878.63,335.41 879.80,333.06 880.98,332.43 881.76,331.87 882.94,329.95 884.12,328.69 885.29,328.12 886.47,326.99 887.25,327.48 888.43,327.98 889.61,325.76 890.78,324.39 891.57,324.22 892.75,323.80 893.92,324.80 895.10,325.83 896.27,325.38 897.06,325.92 898.24,326.08 899.41,325.52 900.59,325.92 901.37,325.89 902.55,324.37 903.73,324.66 904.90,324.27 906.08,323.56 906.86,324.19 908.04,324.52 909.22,324.41 910.39,325.25 911.18,325.12 912.35,322.69 913.53,321.90 914.71,319.66 915.88,317.26 916.67,319.22 917.84,321.63 919.02,324.80 920.20,329.82 920.98,330.78 922.16,330.46 923.33,331.48 924.51,331.59 925.69,325.08 926.47,304.34 927.65,254.42 928.82,273.21 930.00,342.22 931.18,344.12 931.96,340.49 933.14,345.90 934.31,344.32 935.49,343.04 936.27,342.67 937.45,341.28 938.63,339.14 939.80,338.26 940.98,336.42 941.76,335.44 942.94,334.68 944.12,333.32 945.29,331.35 946.08,330.66 947.25,329.62 948.43,328.39 949.61,327.61 950.78,327.27 951.57,326.69 952.75,325.48 953.92,324.29 955.10,323.05 955.88,323.07 957.06,324.22 958.24,324.48 959.41,325.53 960.59,326.54 961.37,325.30 962.55,324.84 963.73,325.87 964.90,325.07 965.69,324.95 966.86,325.75 968.04,324.66 969.22,325.08 970.39,325.59 971.18,325.61 972.35,325.25 973.53,325.66 974.71,323.79 975.49,322.76 976.67,321.54 977.84,317.73 979.02,318.54 980.20,321.98 980.98,323.24 982.16,327.54 983.33,330.92 984.51,330.91 985.29,330.95 986.47,331.47 987.65,331.88 988.82,324.03 990.00,283.01 990.78,252.47 991.96,282.51 993.14,343.14 994.31,343.16 995.49,343.96 996.27,346.67 997.45,344.43 998.63,343.69 999.80,342.92 1000.59,341.72 1001.76,341.00 1002.94,338.96 1004.12,336.56 1005.29,336.24 1006.08,335.14 1007.25,332.60 1008.43,332.18 1009.61,330.54 1010.39,329.21 1011.57,329.00 1012.75,327.79 1013.92,326.61 1015.10,327.68 1015.88,327.17 1017.06,325.15 1018.24,324.73 1019.41,323.56 1020.20,322.98 1021.37,324.77 1022.55,325.31 1023.73,324.46 1024.90,325.98 1025.69,325.60 1026.86,323.69 1028.04,324.45 1029.22,320.72 1030.00,317.09 1031.18,316.36 1032.35,313.48 1033.53,305.50 1034.71,294.09 1035.49,284.18 1036.67,284.19 1037.84,295.70 1039.02,301.50 1039.80,301.61 1040.98,320.10 1042.16,344.47 1043.33,350.15 1044.51,355.83 1045.29,357.46 1046.47,357.84 1047.65,359.57 1048.82,359.22 1050.00,355.35"/>  <!-- noqa: E501 -->
<text x="55" y="450" font-size="12">Per-window normalized absolute Integrated Gradients</text><polyline fill="none" stroke="#c77d00" points="70.00,539.98 70.78,539.97 71.96,539.92 73.14,539.85 74.31,539.61 75.10,538.82 76.27,539.28 77.45,537.02 78.63,538.93 79.80,537.66 80.59,539.92 81.76,539.99 82.94,538.86 84.12,539.62 84.90,539.59 86.08,535.81 87.25,538.32 88.43,533.74 89.61,526.58 90.39,511.91 91.57,539.56 92.75,531.71 93.92,533.77 94.71,537.68 95.88,537.09 97.06,534.81 98.24,539.22 99.41,536.85 100.20,538.15 101.37,538.04 102.55,538.72 103.73,536.91 104.51,539.50 105.69,538.53 106.86,538.11 108.04,539.16 109.22,538.56 110.00,539.82 111.18,539.76 112.35,540.00 113.53,539.83 114.31,539.75 115.49,539.98 116.67,539.42 117.84,538.36 119.02,539.83 119.80,539.78 120.98,539.79 122.16,539.87 123.33,539.91 124.12,539.95 125.29,539.87 126.47,539.87 127.65,539.33 128.82,539.55 129.61,539.69 130.78,539.73 131.96,539.12 133.14,539.74 134.31,539.82 135.10,539.19 136.27,539.84 137.45,539.66 138.63,538.92 139.41,539.73 140.59,534.56 141.76,537.34 142.94,536.90 144.12,539.36 144.90,540.00 146.08,538.51 147.25,538.77 148.43,539.36 149.22,536.11 150.39,536.60 151.57,537.38 152.75,539.81 153.92,523.03 154.71,521.61 155.88,536.31 157.06,539.19 158.24,532.69 159.02,529.64 160.20,536.88 161.37,536.97 162.55,534.32 163.73,539.88 164.51,538.38 165.69,536.40 166.86,537.25 168.04,539.86 168.82,538.55 170.00,537.63 171.18,539.77 172.35,538.88 173.53,538.25 174.31,539.85 175.49,539.63 176.67,539.75 177.84,539.93 178.63,539.96 179.80,539.87 180.98,539.85 182.16,539.57 183.33,538.06 184.12,538.94 185.29,539.03 186.47,539.93 187.65,539.13 188.43,539.30 189.61,539.80 190.78,539.08 191.96,539.33 193.14,539.48 193.92,538.20 195.10,539.95 196.27,537.46 197.45,539.95 198.63,539.43 199.41,538.38 200.59,539.54 201.76,539.78 202.94,537.80 203.73,539.62 204.90,536.50 206.08,538.07 207.25,534.65 208.43,537.06 209.22,539.90 210.39,539.96 211.57,537.62 212.75,537.38 213.53,539.66 214.71,536.10 215.88,538.80 217.06,538.31 218.24,536.13 219.02,527.32 220.20,538.10 221.37,532.74 222.55,536.37 223.33,534.13 224.51,537.31 225.69,536.51 226.86,536.24 228.04,535.65 228.82,534.76 230.00,532.90 231.18,539.39 232.35,534.22 233.14,538.67 234.31,539.08 235.49,536.32 236.67,539.88 237.84,537.83 238.63,539.49 239.80,539.98 240.98,539.94 242.16,539.95 242.94,539.95 244.12,539.99 245.29,537.94 246.47,539.27 247.65,539.05 248.43,537.06 249.61,539.51 250.78,539.72 251.96,539.67 252.75,539.90 253.92,539.58 255.10,538.86 256.27,539.73 257.45,539.20 258.24,539.17 259.41,539.18 260.59,539.63 261.76,539.87 262.94,539.65 263.73,539.56 264.90,539.39 266.08,537.69 267.25,540.00 268.04,536.89 269.22,536.26 270.39,536.77 271.57,536.64 272.75,539.62 273.53,538.37 274.71,539.76 275.88,539.76 277.06,538.33 277.84,536.16 279.02,538.43 280.20,517.46 281.37,447.10 282.55,539.01 283.33,538.01 284.51,520.34 285.69,535.17 286.86,534.31 287.65,530.63 288.82,535.04 290.00,536.40 291.18,532.67 292.35,539.52 293.14,536.29 294.31,532.33 295.49,539.79 296.67,538.19 297.45,539.81 298.63,539.11 299.80,536.59 300.98,539.10 302.16,539.48 302.94,539.69 304.12,539.97 305.29,539.38 306.47,539.88 307.25,539.68 308.43,538.49 309.61,539.17 310.78,539.08 311.96,539.94 312.75,539.98 313.92,539.78 315.10,539.92 316.27,539.99 317.45,539.72 318.24,539.85 319.41,539.87 320.59,538.18 321.76,539.69 322.55,539.54 323.73,537.97 324.90,537.84 326.08,539.36 327.25,539.25 328.04,539.54 329.22,538.64 330.39,536.93 331.57,538.42 332.35,537.28 333.53,536.36 334.71,538.57 335.88,539.22 337.06,539.46 337.84,537.45 339.02,537.42 340.20,536.34 341.37,539.36 342.16,537.15 343.33,538.02 344.51,537.62 345.69,469.83 346.86,529.40 347.65,538.02 348.82,536.86 350.00,537.21 351.18,531.72 351.96,538.19 353.14,536.61 354.31,532.91 355.49,532.46 356.67,538.78 357.45,533.62 358.63,538.25 359.80,538.60 360.98,538.96 361.76,539.04 362.94,538.70 364.12,539.59 365.29,539.16 366.47,539.36 367.25,539.94 368.43,539.47 369.61,539.80 370.78,539.95 371.57,539.77 372.75,539.57 373.92,539.72 375.10,539.54 376.27,539.96 377.06,539.85 378.24,539.72 379.41,539.66 380.59,538.35 381.76,539.81 382.55,539.11 383.73,539.01 384.90,539.90 386.08,539.21 386.86,538.77 388.04,539.88 389.22,538.26 390.39,539.94 391.57,539.74 392.35,539.70 393.53,539.85 394.71,539.72 395.88,538.33 396.67,537.51 397.84,539.64 399.02,537.52 400.20,538.08 401.37,539.47 402.16,539.98 403.33,538.36 404.51,539.61 405.69,535.56 406.47,536.02 407.65,537.03 408.82,538.48 410.00,539.86 411.18,515.33 411.96,530.86 413.14,531.89 414.31,539.87 415.49,527.26 416.27,529.88 417.45,532.51 418.63,538.82 419.80,534.14 420.98,536.24 421.76,539.43 422.94,535.51 424.12,539.46 425.29,532.87 426.08,538.02 427.25,538.59 428.43,533.93 429.61,539.27 430.78,536.59 431.57,537.89 432.75,539.14 433.92,538.58 435.10,539.75 435.88,539.89 437.06,539.84 438.24,539.82 439.41,539.90 440.59,539.50 441.37,538.83 442.55,539.67 443.73,539.52 444.90,539.18 446.08,539.75 446.86,539.57 448.04,539.25 449.22,539.53 450.39,538.37 451.18,539.72 452.35,539.82 453.53,539.38 454.71,539.83 455.88,539.05 456.67,539.77 457.84,539.41 459.02,539.89 460.20,538.55 460.98,537.43 462.16,539.67 463.33,536.47 464.51,537.52 465.69,536.93 466.47,539.50 467.65,539.95 468.82,539.28 470.00,537.97 470.78,539.89 471.96,539.32 473.14,539.48 474.31,539.09 475.49,529.39 476.27,506.38 477.45,535.53 478.63,539.28 479.80,537.76 480.59,532.32 481.76,535.93 482.94,537.80 484.12,535.97 485.29,537.84 486.08,536.49 487.25,534.97 488.43,536.69 489.61,536.49 490.39,538.32 491.57,538.64 492.75,537.94 493.92,539.71 495.10,538.53 495.88,538.96 497.06,539.69 498.24,539.95 499.41,539.89 500.59,539.31 501.37,539.73 502.55,539.90 503.73,538.78 504.90,539.47 505.69,538.44 506.86,538.13 508.04,539.43 509.22,539.61 510.39,538.77 511.18,540.00 512.35,539.77 513.53,538.74 514.71,539.79 515.49,539.47 516.67,538.13 517.84,538.16 519.02,539.31 520.20,539.79 520.98,538.91 522.16,539.78 523.33,538.86 524.51,539.50 525.29,539.32 526.47,536.55 527.65,539.25 528.82,536.72 530.00,537.58 530.78,539.49 531.96,538.55 533.14,539.90 534.31,538.84 535.10,539.31 536.27,539.28 537.45,539.64 538.63,537.33 539.80,481.14 540.59,472.82 541.76,538.72 542.94,535.47 544.12,535.46 544.90,537.51 546.08,538.62 547.25,536.29 548.43,539.68 549.61,540.00 550.39,538.58 551.57,534.16 552.75,536.52 553.92,538.79 554.71,538.61 555.88,537.39 557.06,538.61 558.24,539.19 559.41,539.00 560.20,539.53 561.37,539.84 562.55,539.87 563.73,539.65 564.90,539.91 565.69,539.58 566.86,539.76 568.04,539.58 569.22,539.58 570.00,539.96 571.18,539.72 572.35,539.99 573.53,539.85 574.71,539.97 575.49,539.96 576.67,539.73 577.84,539.92 579.02,538.34 579.80,538.96 580.98,539.96 582.16,537.95 583.33,539.58 584.51,539.33 585.29,539.47 586.47,538.85 587.65,537.98 588.82,537.81 589.61,537.39 590.78,537.55 591.96,539.46 593.14,537.58 594.31,539.89 595.10,539.63 596.27,538.94 597.45,538.37 598.63,537.15 599.41,538.32 600.59,537.38 601.76,531.89 602.94,483.92 604.12,526.97 604.90,530.62 606.08,517.92 607.25,533.64 608.43,537.54 609.22,530.15 610.39,530.97 611.57,536.84 612.75,532.49 613.92,538.33 614.71,535.30 615.88,533.23 617.06,538.04 618.24,536.13 619.02,535.06 620.20,539.19 621.37,537.54 622.55,539.83 623.73,539.30 624.51,539.89 625.69,539.80 626.86,539.80 628.04,539.99 629.22,539.87 630.00,538.86 631.18,537.77 632.35,539.41 633.53,539.45 634.31,539.61 635.49,539.05 636.67,539.17 637.84,539.70 639.02,539.40 639.80,539.24 640.98,539.06 642.16,539.50 643.33,539.64 644.12,538.41 645.29,539.61 646.47,538.71 647.65,539.84 648.82,539.38 649.61,539.45 650.78,539.89 651.96,539.11 653.14,539.57 653.92,538.32 655.10,537.97 656.27,539.87 657.45,539.62 658.63,534.99 659.41,537.90 660.59,540.00 661.76,539.64 662.94,538.69 663.73,539.47 664.90,539.93 666.08,538.47 667.25,535.73 668.43,536.08 669.22,534.26 670.39,531.90 671.57,534.49 672.75,533.09 673.53,537.43 674.71,538.62 675.88,534.61 677.06,534.34 678.24,538.43 679.02,539.05 680.20,534.97 681.37,537.58 682.55,539.85 683.73,538.44 684.51,537.25 685.69,539.26 686.86,538.62 688.04,538.20 688.82,539.72 690.00,539.69 691.18,539.42 692.35,539.60 693.53,539.64 694.31,539.81 695.49,539.49 696.67,537.73 697.84,539.22 698.63,540.00 699.80,539.48 700.98,539.97 702.16,539.80 703.33,539.93 704.12,539.79 705.29,539.93 706.47,539.78 707.65,540.00 708.43,539.99 709.61,539.91 710.78,539.99 711.96,539.62 713.14,539.65 713.92,539.93 715.10,539.74 716.27,538.47 717.45,538.94 718.24,539.21 719.41,539.76 720.59,539.09 721.76,536.59 722.94,538.07 723.73,539.93 724.90,538.81 726.08,539.83 727.25,538.11 728.04,537.16 729.22,538.82 730.39,539.53 731.57,538.79 732.75,534.20 733.53,524.24 734.71,539.23 735.88,539.22 737.06,536.34 737.84,533.69 739.02,539.20 740.20,534.67 741.37,536.42 742.55,536.75 743.33,534.04 744.51,537.09 745.69,538.70 746.86,539.63 748.04,537.59 748.82,539.50 750.00,538.93 751.18,539.35 752.35,539.11 753.14,537.81 754.31,539.86 755.49,539.80 756.67,539.97 757.84,540.00 758.63,539.30 759.80,539.70 760.98,538.91 762.16,538.96 762.94,539.20 764.12,537.79 765.29,539.51 766.47,538.90 767.65,538.99 768.43,539.09 769.61,538.17 770.78,538.90 771.96,537.89 772.75,539.37 773.92,539.44 775.10,539.40 776.27,539.46 777.45,538.88 778.24,539.79 779.41,539.02 780.59,539.60 781.76,539.17 782.55,537.75 783.73,538.09 784.90,529.90 786.08,538.21 787.25,536.78 788.04,539.12 789.22,539.83 790.39,539.22 791.57,539.78 792.35,539.99 793.53,534.24 794.71,535.96 795.88,539.41 797.06,525.33 797.84,536.73 799.02,507.61 800.20,532.25 801.37,524.93 802.16,539.45 803.33,537.54 804.51,530.72 805.69,530.56 806.86,538.36 807.65,538.86 808.82,536.07 810.00,537.37 811.18,534.21 812.35,536.22 813.14,538.24 814.31,534.66 815.49,538.23 816.67,539.26 817.45,536.61 818.63,539.99 819.80,538.67 820.98,539.99 822.16,539.98 822.94,539.79 824.12,539.93 825.29,539.90 826.47,539.17 827.25,537.58 828.43,538.09 829.61,539.51 830.78,539.67 831.96,539.61 832.75,539.94 833.92,538.79 835.10,539.87 836.27,539.79 837.06,539.60 838.24,539.66 839.41,539.75 840.59,539.99 841.76,539.44 842.55,539.54 843.73,539.45 844.90,539.40 846.08,539.86 846.86,539.57 848.04,539.28 849.22,539.95 850.39,536.11 851.57,539.62 852.35,535.50 853.53,538.13 854.71,539.85 855.88,535.54 856.67,538.33 857.84,539.18 859.02,538.48 860.20,538.20 861.37,535.52 862.16,523.13 863.33,465.65 864.51,528.43 865.69,520.76 866.86,537.97 867.65,538.73 868.82,530.60 870.00,530.58 871.18,537.49 871.96,536.85 873.14,534.76 874.31,536.08 875.49,538.97 876.67,536.46 877.45,534.77 878.63,537.32 879.80,539.36 880.98,537.89 881.76,538.65 882.94,537.75 884.12,538.67 885.29,539.75 886.47,539.85 887.25,539.68 888.43,539.76 889.61,539.62 890.78,539.23 891.57,538.92 892.75,537.69 893.92,539.48 895.10,539.44 896.27,539.84 897.06,539.91 898.24,539.57 899.41,539.47 900.59,539.98 901.37,539.93 902.55,539.59 903.73,539.02 904.90,538.09 906.08,539.96 906.86,539.20 908.04,539.76 909.22,539.72 910.39,539.79 911.18,539.03 912.35,538.10 913.53,537.44 914.71,536.01 915.88,538.29 916.67,538.46 917.84,539.76 919.02,538.93 920.20,537.29 920.98,539.10 922.16,538.96 923.33,537.67 924.51,539.17 925.69,538.99 926.47,518.62 927.65,450.25 928.82,531.34 930.00,528.32 931.18,535.50 931.96,538.26 933.14,532.55 934.31,530.23 935.49,538.88 936.27,539.54 937.45,539.61 938.63,536.51 939.80,537.33 940.98,539.53 941.76,539.40 942.94,539.09 944.12,538.54 945.29,537.87 946.08,539.95 947.25,539.07 948.43,539.26 949.61,539.88 950.78,539.82 951.57,539.99 952.75,539.58 953.92,538.89 955.10,538.61 955.88,539.16 957.06,538.79 958.24,539.25 959.41,539.35 960.59,539.98 961.37,539.48 962.55,537.77 963.73,539.61 964.90,539.48 965.69,539.15 966.86,539.98 968.04,538.31 969.22,539.91 970.39,539.08 971.18,538.86 972.35,539.72 973.53,539.85 974.71,539.15 975.49,537.40 976.67,538.71 977.84,531.78 979.02,538.49 980.20,539.73 980.98,539.11 982.16,539.60 983.33,539.47 984.51,537.57 985.29,537.70 986.47,539.98 987.65,539.11 988.82,538.51 990.00,515.63 990.78,488.38 991.96,535.84 993.14,538.87 994.31,539.11 995.49,539.37 996.27,539.68 997.45,537.06 998.63,534.50 999.80,537.78 1000.59,538.38 1001.76,536.06 1002.94,539.60 1004.12,536.71 1005.29,539.63 1006.08,538.85 1007.25,535.50 1008.43,539.41 1009.61,538.74 1010.39,538.00 1011.57,539.59 1012.75,539.56 1013.92,539.99 1015.10,539.64 1015.88,539.83 1017.06,539.60 1018.24,539.10 1019.41,538.10 1020.20,538.73 1021.37,539.89 1022.55,538.83 1023.73,539.78 1024.90,539.73 1025.69,538.57 1026.86,539.90 1028.04,538.57 1029.22,527.30 1030.00,533.49 1031.18,538.62 1032.35,513.76 1033.53,513.06 1034.71,467.27 1035.49,476.92 1036.67,459.57 1037.84,497.76 1039.02,535.99 1039.80,506.44 1040.98,539.42 1042.16,533.93 1043.33,537.45 1044.51,538.38 1045.29,539.27 1046.47,539.26 1047.65,538.51 1048.82,539.74 1050.00,540.00"/>  <!-- noqa: E501 -->
<text x="55" y="630" font-size="12">Signed Integrated Gradients on 250-Hz model grid</text><polyline fill="none" stroke="#9d0208" points="70.00,649.57 70.78,649.57 71.96,649.60 73.14,649.46 74.31,649.31 75.10,650.28 76.27,649.99 77.45,647.73 78.63,648.90 79.80,648.12 80.59,649.60 81.76,649.56 82.94,648.85 84.12,649.32 84.90,649.31 86.08,652.12 87.25,650.58 88.43,653.39 89.61,641.33 90.39,666.76 91.57,649.28 92.75,644.48 93.92,653.37 94.71,650.98 95.88,647.77 97.06,646.38 98.24,650.03 99.41,651.48 100.20,648.42 101.37,650.76 102.55,650.34 103.73,647.66 104.51,649.25 105.69,650.46 106.86,648.40 108.04,649.04 109.22,648.67 110.00,649.45 111.18,649.40 112.35,649.55 113.53,649.66 114.31,649.40 115.49,649.56 116.67,649.20 117.84,648.55 119.02,649.45 119.80,649.42 120.98,649.42 122.16,649.47 123.33,649.50 124.12,649.52 125.29,649.64 126.47,649.63 127.65,649.97 128.82,649.28 129.61,649.75 130.78,649.72 131.96,649.01 133.14,649.40 134.31,649.44 135.10,649.06 136.27,649.46 137.45,649.34 138.63,650.22 139.41,649.72 140.59,646.22 141.76,651.18 142.94,651.45 144.12,649.95 144.90,649.55 146.08,648.64 147.25,648.80 148.43,649.16 149.22,647.17 150.39,647.47 151.57,651.16 152.75,649.44 153.92,639.16 154.71,638.29 155.88,647.29 157.06,650.05 158.24,645.08 159.02,655.90 160.20,647.64 161.37,651.41 162.55,646.07 163.73,649.48 164.51,648.56 165.69,651.76 166.86,647.87 168.04,649.47 168.82,648.67 170.00,648.10 171.18,649.69 172.35,648.87 173.53,650.63 174.31,649.46 175.49,649.33 176.67,649.71 177.84,649.59 178.63,649.53 179.80,649.48 180.98,649.46 182.16,649.29 183.33,648.37 184.12,648.91 185.29,650.15 186.47,649.59 187.65,650.09 188.43,649.98 189.61,649.68 190.78,650.12 191.96,649.14 193.14,649.24 193.92,648.45 195.10,649.58 196.27,648.00 197.45,649.52 198.63,649.21 199.41,648.56 200.59,649.83 201.76,649.42 202.94,650.90 203.73,649.78 204.90,647.41 206.08,648.37 207.25,652.83 208.43,647.76 209.22,649.49 210.39,649.58 211.57,648.09 212.75,651.16 213.53,649.76 214.71,651.94 215.88,650.29 217.06,650.59 218.24,647.18 219.02,657.32 220.20,650.72 221.37,645.11 222.55,651.78 223.33,653.15 224.51,647.90 225.69,651.69 226.86,647.25 228.04,646.89 228.82,646.34 230.00,653.90 231.18,649.18 232.35,653.10 233.14,648.74 234.31,648.99 235.49,651.81 236.67,649.63 237.84,650.88 238.63,649.87 239.80,649.57 240.98,649.52 242.16,649.58 242.94,649.52 244.12,649.56 245.29,650.82 246.47,650.00 247.65,650.13 248.43,651.36 249.61,649.86 250.78,649.73 251.96,649.35 252.75,649.61 253.92,649.81 255.10,648.86 256.27,649.39 257.45,649.06 258.24,649.05 259.41,649.05 260.59,649.78 261.76,649.47 262.94,649.77 263.73,649.82 264.90,649.93 266.08,650.97 267.25,649.55 268.04,651.46 269.22,647.26 270.39,647.58 271.57,647.50 272.75,649.32 273.53,650.56 274.71,649.70 275.88,649.41 277.06,648.53 277.84,651.91 279.02,648.59 280.20,635.75 281.37,706.46 282.55,648.95 283.33,648.33 284.51,637.51 285.69,646.60 286.86,646.07 287.65,643.81 288.82,646.51 290.00,647.35 291.18,654.04 292.35,649.26 293.14,647.28 294.31,654.25 295.49,649.68 296.67,648.44 297.45,649.67 298.63,649.01 299.80,651.64 300.98,649.00 302.16,649.87 302.94,649.36 304.12,649.57 305.29,649.17 306.47,649.63 307.25,649.75 308.43,650.48 309.61,649.05 310.78,648.99 311.96,649.52 312.75,649.57 313.92,649.42 315.10,649.51 316.27,649.56 317.45,649.73 318.24,649.65 319.41,649.63 320.59,650.67 321.76,649.74 322.55,649.83 323.73,650.80 324.90,648.23 326.08,649.94 327.25,649.10 328.04,649.84 329.22,650.39 330.39,647.67 331.57,650.52 332.35,651.22 333.53,651.79 334.71,648.68 335.88,650.03 337.06,649.22 337.84,651.11 339.02,647.98 340.20,647.31 341.37,649.94 342.16,647.81 343.33,650.76 344.51,648.10 345.69,692.54 346.86,643.06 347.65,650.77 348.82,647.63 350.00,647.85 351.18,644.48 351.96,648.45 353.14,651.63 354.31,653.90 355.49,644.93 356.67,650.30 357.45,653.46 358.63,648.48 359.80,648.70 360.98,648.91 361.76,648.97 362.94,648.76 364.12,649.30 365.29,649.04 366.47,649.94 367.25,649.59 368.43,649.23 369.61,649.43 370.78,649.58 371.57,649.69 372.75,649.29 373.92,649.38 375.10,649.83 376.27,649.53 377.06,649.64 378.24,649.38 379.41,649.76 380.59,650.57 381.76,649.44 382.55,650.10 383.73,648.95 384.90,649.49 386.08,649.07 386.86,648.80 388.04,649.48 389.22,648.49 390.39,649.52 391.57,649.71 392.35,649.37 393.53,649.46 394.71,649.72 395.88,650.57 396.67,651.08 397.84,649.33 399.02,651.08 400.20,650.73 401.37,649.23 402.16,649.57 403.33,648.55 404.51,649.31 405.69,652.27 406.47,647.12 407.65,647.74 408.82,650.49 410.00,649.47 411.18,634.44 411.96,643.96 413.14,644.59 414.31,649.48 415.49,641.75 416.27,655.76 417.45,644.97 418.63,648.83 419.80,645.96 420.98,647.25 421.76,649.21 422.94,646.80 424.12,649.22 425.29,653.92 426.08,648.34 427.25,648.69 428.43,653.27 429.61,650.00 430.78,651.64 431.57,650.85 432.75,649.03 433.92,650.42 435.10,649.40 435.88,649.62 437.06,649.46 438.24,649.67 439.41,649.62 440.59,649.25 441.37,650.27 442.55,649.76 443.73,649.85 444.90,649.05 446.08,649.40 446.86,649.82 448.04,649.09 449.22,649.27 450.39,648.56 451.18,649.38 452.35,649.67 453.53,649.94 454.71,649.66 455.88,650.14 456.67,649.41 457.84,649.20 459.02,649.62 460.20,650.44 460.98,651.13 462.16,649.35 463.33,651.71 464.51,651.07 465.69,647.67 466.47,649.86 467.65,649.58 468.82,649.99 470.00,648.31 470.78,649.49 471.96,649.97 473.14,649.87 474.31,649.00 475.49,643.06 476.27,628.96 477.45,646.82 478.63,649.11 479.80,648.18 480.59,654.26 481.76,647.06 482.94,648.21 484.12,652.02 485.29,650.88 486.08,647.40 487.25,652.64 488.43,651.58 489.61,651.71 490.39,650.58 491.57,650.38 492.75,648.29 493.92,649.38 495.10,648.65 495.88,648.91 497.06,649.36 498.24,649.52 499.41,649.49 500.59,649.13 501.37,649.72 502.55,649.50 503.73,648.81 504.90,649.88 505.69,648.60 506.86,648.41 508.04,649.90 509.22,649.79 510.39,650.31 511.18,649.55 512.35,649.70 513.53,650.33 514.71,649.68 515.49,649.88 516.67,650.70 517.84,650.68 519.02,649.13 520.20,649.43 520.98,648.89 522.16,649.42 523.33,648.86 524.51,649.86 525.29,649.97 526.47,647.44 527.65,650.01 528.82,651.56 530.00,651.03 530.78,649.24 531.96,648.67 533.14,649.49 534.31,648.84 535.10,649.13 536.27,649.99 537.45,649.34 538.63,647.92 539.80,613.49 540.59,690.71 541.76,648.77 542.94,646.78 544.12,652.33 544.90,648.03 546.08,650.40 547.25,647.28 548.43,649.36 549.61,649.56 550.39,650.42 551.57,653.13 552.75,647.42 553.92,648.81 554.71,648.70 555.88,647.96 557.06,648.70 558.24,649.06 559.41,650.17 560.20,649.26 561.37,649.46 562.55,649.64 563.73,649.77 564.90,649.61 565.69,649.30 566.86,649.41 568.04,649.81 569.22,649.81 570.00,649.58 571.18,649.38 572.35,649.55 573.53,649.46 574.71,649.53 575.49,649.58 576.67,649.72 577.84,649.60 579.02,648.54 579.80,650.19 580.98,649.58 582.16,648.30 583.33,649.30 584.51,649.14 585.29,649.23 586.47,650.26 587.65,648.31 588.82,650.90 589.61,651.16 590.78,648.06 591.96,649.22 593.14,651.04 594.31,649.49 595.10,649.33 596.27,650.21 597.45,650.56 598.63,651.30 599.41,650.58 600.59,647.95 601.76,644.59 602.94,683.90 604.12,657.54 604.90,643.81 606.08,636.03 607.25,653.45 608.43,648.05 609.22,643.52 610.39,655.08 611.57,647.62 612.75,654.16 613.92,648.53 614.71,646.67 615.88,653.70 617.06,648.35 618.24,651.93 619.02,652.58 620.20,649.06 621.37,651.06 622.55,649.45 623.73,649.13 624.51,649.62 625.69,649.68 626.86,649.43 628.04,649.56 629.22,649.63 630.00,648.86 631.18,650.92 632.35,649.91 633.53,649.89 634.31,649.79 635.49,650.14 636.67,650.06 637.84,649.37 639.02,649.19 639.80,650.02 640.98,648.98 642.16,649.25 643.33,649.33 644.12,648.58 645.29,649.32 646.47,648.77 647.65,649.65 648.82,649.94 649.61,649.89 650.78,649.48 651.96,650.10 653.14,649.82 653.92,650.59 655.10,650.80 656.27,649.48 657.45,649.79 658.63,646.49 659.41,648.27 660.59,649.55 661.76,649.78 662.94,650.36 663.73,649.88 664.90,649.60 666.08,650.49 667.25,652.17 668.43,647.15 669.22,653.07 670.39,644.59 671.57,646.18 672.75,653.78 673.53,651.13 674.71,648.71 675.88,646.25 677.06,653.02 678.24,650.52 679.02,648.97 680.20,652.64 681.37,651.03 682.55,649.65 683.73,650.51 684.51,651.24 685.69,649.10 686.86,650.40 688.04,648.45 688.82,649.72 690.00,649.75 691.18,649.20 692.35,649.31 693.53,649.77 694.31,649.44 695.49,649.87 696.67,650.94 697.84,649.08 698.63,649.56 699.80,649.23 700.98,649.57 702.16,649.68 703.33,649.51 704.12,649.42 705.29,649.59 706.47,649.69 707.65,649.56 708.43,649.56 709.61,649.50 710.78,649.55 711.96,649.78 713.14,649.34 713.92,649.60 715.10,649.71 716.27,648.62 717.45,648.91 718.24,650.04 719.41,649.41 720.59,650.11 721.76,651.64 722.94,648.37 723.73,649.51 724.90,650.28 726.08,649.66 727.25,648.40 728.04,647.81 729.22,648.83 730.39,649.27 731.57,650.29 732.75,646.00 733.53,639.90 734.71,650.02 735.88,650.03 737.06,651.79 737.84,653.42 739.02,649.07 740.20,652.82 741.37,647.36 742.55,647.56 743.33,653.21 744.51,647.77 745.69,648.76 746.86,649.78 748.04,648.08 748.82,649.25 750.00,650.21 751.18,649.15 752.35,650.10 753.14,650.90 754.31,649.64 755.49,649.68 756.67,649.53 757.84,649.56 758.63,649.12 759.80,649.73 760.98,650.22 762.16,650.19 762.94,649.06 764.12,650.91 765.29,649.25 766.47,650.23 767.65,648.93 768.43,650.11 769.61,648.43 770.78,650.23 771.96,648.26 772.75,649.94 773.92,649.90 775.10,649.92 776.27,649.22 777.45,650.24 778.24,649.42 779.41,648.95 780.59,649.80 781.76,650.06 782.55,650.93 783.73,648.39 784.90,655.74 786.08,648.46 787.25,651.53 788.04,650.09 789.22,649.45 790.39,649.08 791.57,649.42 792.35,649.55 793.53,646.02 794.71,652.03 795.88,649.19 797.06,640.57 797.84,647.55 799.02,669.39 800.20,644.81 801.37,640.32 802.16,649.22 803.33,648.05 804.51,643.87 805.69,655.33 806.86,648.55 807.65,648.86 808.82,647.15 810.00,647.94 811.18,653.10 812.35,651.87 813.14,648.47 814.31,652.83 815.49,650.64 816.67,650.01 817.45,651.63 818.63,649.56 819.80,650.37 820.98,649.55 822.16,649.57 822.94,649.42 824.12,649.60 825.29,649.62 826.47,650.06 827.25,651.04 828.43,650.73 829.61,649.25 830.78,649.35 831.96,649.31 832.75,649.51 833.92,648.81 835.10,649.47 836.27,649.68 837.06,649.31 838.24,649.34 839.41,649.70 840.59,649.55 841.76,649.90 842.55,649.84 843.73,649.89 844.90,649.92 846.08,649.64 846.86,649.82 848.04,650.00 849.22,649.59 850.39,647.17 851.57,649.79 852.35,646.80 853.53,648.41 854.71,649.65 855.88,646.82 856.67,650.57 857.84,650.06 859.02,648.62 860.20,648.45 861.37,646.81 862.16,639.22 863.33,695.10 864.51,642.47 865.69,637.77 866.86,650.80 867.65,650.33 868.82,643.80 870.00,655.33 871.18,651.09 871.96,647.63 873.14,652.76 874.31,651.95 875.49,648.92 876.67,647.39 877.45,652.76 878.63,647.91 879.80,649.16 880.98,648.26 881.76,648.73 882.94,648.18 884.12,650.37 885.29,649.40 886.47,649.65 887.25,649.36 888.43,649.41 889.61,649.32 890.78,650.02 891.57,648.89 892.75,648.14 893.92,649.23 895.10,649.90 896.27,649.65 897.06,649.61 898.24,649.29 899.41,649.88 900.59,649.54 901.37,649.60 902.55,649.81 903.73,650.15 904.90,650.72 906.08,649.53 906.86,650.04 908.04,649.70 909.22,649.38 910.39,649.43 911.18,650.15 912.35,648.39 913.53,647.98 914.71,647.11 915.88,648.51 916.67,648.61 917.84,649.40 919.02,648.90 920.20,647.90 920.98,650.10 922.16,648.92 923.33,648.12 924.51,650.07 925.69,648.94 926.47,636.46 927.65,704.53 928.82,644.25 930.00,642.40 931.18,652.31 931.96,648.49 933.14,644.99 934.31,655.54 935.49,650.24 936.27,649.83 937.45,649.31 938.63,651.69 939.80,647.92 940.98,649.26 941.76,649.19 942.94,650.11 944.12,648.66 945.29,650.86 946.08,649.59 947.25,648.98 948.43,650.01 949.61,649.48 950.78,649.45 951.57,649.55 952.75,649.81 953.92,648.87 955.10,650.40 955.88,650.07 957.06,650.30 958.24,650.01 959.41,649.95 960.59,649.56 961.37,649.87 962.55,650.92 963.73,649.31 964.90,649.23 965.69,649.03 966.86,649.54 968.04,648.52 969.22,649.61 970.39,648.99 971.18,650.25 972.35,649.38 973.53,649.65 974.71,650.08 975.49,651.15 976.67,648.77 977.84,654.59 979.02,650.48 980.20,649.72 980.98,650.10 982.16,649.31 983.33,649.23 984.51,651.04 985.29,648.14 986.47,649.54 987.65,650.10 988.82,648.64 990.00,634.63 990.78,617.93 991.96,647.00 993.14,648.86 994.31,649.01 995.49,649.94 996.27,649.75 997.45,651.36 998.63,646.18 999.80,648.19 1000.59,648.56 1001.76,647.14 1002.94,649.80 1004.12,647.54 1005.29,649.33 1006.08,648.85 1007.25,652.31 1008.43,649.92 1009.61,650.32 1010.39,650.78 1011.57,649.80 1012.75,649.82 1013.92,649.55 1015.10,649.34 1015.88,649.66 1017.06,649.31 1018.24,650.11 1019.41,650.72 1020.20,650.33 1021.37,649.62 1022.55,650.27 1023.73,649.69 1024.90,649.39 1025.69,650.43 1026.86,649.62 1028.04,648.68 1029.22,641.78 1030.00,653.54 1031.18,648.71 1032.35,633.48 1033.53,666.06 1034.71,605.00 1035.49,610.91 1036.67,698.83 1037.84,623.68 1039.02,652.01 1039.80,670.11 1040.98,649.91 1042.16,645.83 1043.33,651.12 1044.51,650.55 1045.29,649.11 1046.47,649.10 1047.65,650.47 1048.82,649.71 1050.00,649.55"/>  <!-- noqa: E501 -->
<text x="55" y="745" font-size="10">Attributions target the pre-sigmoid logit from an exact zero normalized-input baseline.</text>  <!-- noqa: E501 -->
</svg>